<?xml version="1.0" standalone="no"?>
<!DOCTYPE svg PUBLIC "-//W3C//DTD SVG 20010904//EN"
 "http://www.w3.org/TR/2001/REC-SVG-20010904/DTD/svg10.dtd">
<svg version="1.0" xmlns="http://www.w3.org/2000/svg"
 width="1024.000000pt" height="1024.000000pt" viewBox="0 0 1024.000000 1024.000000"
 preserveAspectRatio="xMidYMid meet">
<metadata>
Created by potrace 1.14, written by Peter Selinger 2001-2017
</metadata>
<g transform="translate(0.000000,1024.000000) scale(0.100000,-0.100000)"
fill="#000000" stroke="none">
<path d="M4086 9407 c3 -10 9 -15 12 -12 3 3 0 11 -7 18 -10 9 -11 8 -5 -6z"/>
<path d="M4150 9410 c-12 -8 -12 -10 -1 -10 8 0 2 -9 -13 -21 -14 -11 -26 -28
-25 -37 0 -13 3 -11 9 5 5 12 22 29 37 37 15 8 22 15 15 16 -7 0 -10 5 -7 10
8 12 4 12 -15 0z"/>
<path d="M4551 9381 c-11 -7 -9 -10 8 -16 13 -4 25 -4 28 -1 4 3 -2 6 -13 7
-18 0 -18 1 1 9 13 6 15 9 5 9 -8 0 -21 -3 -29 -8z"/>
<path d="M4140 9355 c-11 -14 -7 -22 29 -59 23 -23 38 -46 34 -51 -5 -4 -2 -5
5 -1 28 16 23 -25 -7 -60 -18 -20 -34 -49 -38 -65 -3 -16 -9 -27 -13 -24 -4 2
-5 -7 -2 -20 4 -24 3 -25 -29 -17 -19 4 -71 7 -116 7 -77 0 -84 -2 -112 -29
-17 -17 -31 -38 -31 -47 0 -10 -5 -21 -10 -24 -6 -4 -9 -24 -8 -44 2 -28 7
-37 17 -33 9 3 12 1 7 -6 -4 -7 -2 -12 3 -12 6 0 11 4 11 8 0 5 9 19 19 31 18
21 21 21 48 8 15 -8 37 -25 48 -38 11 -13 13 -18 4 -12 -21 17 -39 -1 -39 -39
0 -45 -20 -126 -35 -138 -7 -6 -11 -20 -8 -30 4 -16 0 -20 -18 -20 -13 -1 -35
-7 -49 -14 -23 -13 -26 -12 -42 15 -21 34 -23 43 -6 33 7 -4 8 -3 4 4 -4 6
-13 9 -20 6 -8 -3 -28 2 -45 10 -38 20 -94 20 -132 0 -23 -12 -34 -13 -44 -4
-8 7 -20 10 -27 7 -8 -3 -6 -6 5 -6 11 -1 15 -6 11 -13 -5 -7 -2 -8 7 -3 8 4
-1 -8 -20 -28 -19 -20 -38 -34 -42 -31 -4 2 -11 -1 -15 -7 -4 -8 -3 -9 4 -5
15 9 16 -6 1 -21 -8 -8 -6 -16 9 -31 11 -11 17 -24 14 -28 -4 -3 3 -1 16 5 24
13 28 26 11 37 -18 10 11 24 52 24 20 0 41 -6 47 -12 12 -16 -3 -62 -18 -53
-5 3 -7 0 -5 -7 8 -19 -48 -70 -78 -72 -14 0 -23 -4 -20 -8 7 -13 -32 -9 -47
5 -12 10 -12 9 -2 -4 10 -13 3 -18 -44 -32 -31 -10 -60 -14 -66 -11 -7 4 -8 2
-4 -4 4 -7 1 -12 -9 -12 -8 0 -33 -11 -54 -24 -21 -14 -42 -22 -46 -18 -4 4
-5 1 -3 -7 2 -7 -3 -16 -10 -18 -8 -3 -10 1 -6 11 4 10 1 16 -7 16 -11 0 -11
3 1 10 9 6 10 10 3 10 -16 0 -26 -17 -14 -24 15 -10 8 -29 -31 -82 -19 -27
-45 -65 -57 -84 l-21 -35 0 47 c0 33 5 50 17 56 11 7 14 15 8 28 -5 11 -8 21
-7 24 1 8 -46 5 -54 -3 -3 -3 -11 -4 -17 -3 -7 2 -9 1 -5 -1 4 -2 4 -12 1 -21
-4 -10 3 -7 15 8 23 27 29 21 12 -11 -6 -10 -17 -19 -24 -19 -8 0 -17 -7 -20
-16 -3 -9 -13 -14 -21 -11 -9 4 -12 1 -8 -9 3 -7 1 -14 -3 -15 -28 -2 -48 -9
-58 -20 -8 -9 -6 -9 12 0 27 14 29 0 3 -23 -10 -9 -31 -44 -46 -78 -22 -48
-28 -77 -29 -137 -1 -94 6 -151 18 -143 5 3 6 -2 3 -12 -5 -11 -3 -15 5 -10 8
5 9 2 5 -10 -4 -9 -3 -15 2 -12 5 3 15 -2 22 -11 8 -9 9 -14 3 -10 -13 8 -54
-20 -54 -36 0 -7 4 -6 10 3 14 22 12 7 -5 -31 -18 -42 -36 -63 -100 -115 -70
-57 -67 -56 -132 -39 -49 12 -189 19 -154 7 6 -2 0 -18 -14 -36 -14 -18 -25
-40 -25 -50 0 -9 -11 -21 -24 -26 -13 -5 -39 -22 -58 -39 -20 -17 -38 -28 -41
-25 -3 3 -4 -1 -4 -8 1 -7 -5 -31 -12 -54 -12 -36 -11 -45 7 -82 17 -36 18
-46 8 -77 -7 -19 -21 -41 -31 -49 -14 -10 -15 -15 -5 -21 9 -5 11 -4 6 3 -4 7
-2 12 3 12 6 0 11 -7 11 -15 0 -22 -11 -19 -53 16 -20 17 -34 35 -31 41 4 6 3
8 -3 5 -10 -6 -66 45 -63 58 1 4 -2 10 -6 13 -4 4 -4 1 0 -5 10 -19 0 -16 -42
11 -29 18 -48 23 -87 20 -105 -7 -114 -9 -104 -20 5 -6 8 -13 6 -15 -1 -2 4 3
12 11 12 13 13 13 6 -5 -19 -52 -19 -55 13 -55 53 0 148 -106 126 -142 -4 -6
-3 -8 3 -5 11 7 23 -36 23 -84 0 -62 22 -127 55 -167 19 -21 31 -42 27 -46 -3
-4 1 -4 10 -1 9 4 25 2 35 -4 17 -10 17 -10 0 -11 -10 0 -16 -3 -14 -7 3 -5
-4 -73 -14 -153 -25 -200 -24 -260 4 -314 26 -52 73 -85 124 -89 29 -1 42 -9
55 -30 10 -15 31 -35 46 -45 16 -9 30 -21 31 -27 2 -5 5 -12 8 -15 4 -3 3 1
-1 8 -5 9 7 12 48 12 46 0 56 -3 61 -20 4 -12 32 -32 71 -50 35 -16 64 -34 64
-40 0 -6 12 -15 28 -21 69 -29 114 -54 124 -72 9 -18 18 -19 106 -14 l95 6 39
42 c21 23 38 48 38 55 0 19 7 18 33 -7 12 -12 39 -29 59 -39 21 -9 36 -19 33
-22 -3 -3 18 -8 47 -11 29 -3 72 -15 95 -26 23 -12 55 -21 71 -21 39 0 42 -6
25 -41 -28 -55 5 -79 48 -35 25 26 49 24 49 -4 0 -14 14 -20 68 -30 37 -6 75
-14 85 -17 9 -2 17 1 17 7 0 6 -4 9 -9 5 -5 -3 -12 -1 -15 4 -4 5 5 8 20 6 18
-2 24 2 20 11 -6 16 30 39 37 24 3 -6 4 -5 3 2 -4 16 12 48 23 48 12 0 0 -94
-13 -102 -6 -4 -18 -5 -26 -2 -8 3 -11 2 -7 -2 10 -10 -22 -44 -37 -38 -18 7
-41 -22 -25 -32 7 -4 9 -3 5 4 -3 6 -1 14 5 17 24 16 17 -5 -15 -44 -19 -23
-37 -37 -41 -31 -3 5 -34 10 -69 10 -101 0 -129 -44 -86 -137 10 -24 30 -54
44 -68 20 -20 24 -30 17 -48 -4 -12 -6 -27 -4 -34 5 -15 -34 -36 -49 -27 -7 5
-8 3 -4 -5 10 -15 -23 -53 -37 -44 -6 4 -7 1 -2 -6 11 -19 -35 -64 -52 -50
-14 12 -19 5 -27 -45 -6 -32 -36 -72 -36 -46 0 7 -3 10 -7 7 -3 -4 -15 1 -26
10 -12 11 -17 12 -12 4 7 -12 1 -13 -31 -7 -111 20 -219 18 -322 -4 -57 -12
-110 -19 -118 -16 -8 3 -14 -1 -14 -8 0 -11 -42 -15 -207 -19 -132 -3 -243
-11 -303 -22 -187 -33 -398 -118 -543 -217 -15 -10 -33 -16 -39 -12 -6 4 -9 3
-5 -2 3 -5 -20 -27 -51 -49 -31 -21 -87 -63 -123 -91 -37 -29 -70 -50 -74 -46
-4 4 -5 2 -3 -4 4 -15 -97 -105 -107 -96 -5 4 -5 2 -2 -4 7 -13 -146 -168
-157 -157 -4 4 -4 1 -1 -8 5 -15 -39 -67 -53 -62 -4 2 -7 -3 -7 -10 0 -6 -27
-48 -59 -92 -72 -98 -80 -107 -72 -78 4 12 3 24 -2 27 -5 3 -8 -9 -7 -27 2
-18 -3 -39 -10 -47 -54 -67 -200 -350 -246 -480 -13 -36 -26 -66 -30 -68 -4
-2 -5 -13 -2 -25 5 -22 5 -22 -11 -2 -15 19 -16 19 -6 -8 13 -35 13 -46 0 -27
-9 13 -10 13 -10 0 0 -13 -1 -13 -11 0 -8 12 -9 10 -4 -7 4 -14 2 -23 -4 -23
-6 0 -11 -13 -11 -30 0 -16 -4 -30 -10 -30 -5 0 -10 -10 -10 -22 0 -17 -3 -19
-9 -10 -5 9 -10 -4 -14 -40 -4 -29 -11 -75 -17 -103 -33 -150 -38 -312 -16
-505 30 -269 46 -362 67 -380 3 -3 11 -20 19 -38 7 -19 30 -54 52 -80 21 -26
38 -52 38 -59 0 -7 5 -13 10 -13 6 0 10 -7 10 -15 0 -8 9 -20 20 -27 11 -7 20
-19 20 -26 0 -7 4 -10 10 -7 9 6 14 -10 13 -43 -1 -6 7 -12 16 -12 10 0 24
-12 32 -27 17 -34 27 -47 59 -82 42 -46 56 -79 42 -101 -9 -14 -8 -19 3 -24 8
-3 15 -11 15 -19 0 -7 11 -35 24 -63 13 -27 29 -64 36 -82 7 -18 25 -45 39
-61 14 -15 33 -41 41 -57 16 -32 52 -69 121 -125 40 -33 73 -61 106 -89 7 -5
15 -10 19 -10 3 0 20 -10 37 -22 32 -23 83 -53 147 -85 19 -10 41 -23 47 -30
7 -6 34 -19 60 -29 27 -10 60 -26 75 -36 14 -10 30 -18 35 -18 6 0 63 -27 127
-60 65 -33 123 -60 129 -60 7 0 23 -9 37 -20 14 -11 40 -20 58 -20 17 0 32 -4
32 -9 0 -10 17 -16 135 -40 50 -11 101 -18 115 -16 14 2 71 9 128 16 56 7 102
15 102 18 0 4 21 13 48 20 80 22 176 54 187 61 6 4 27 13 48 19 20 7 37 16 37
20 0 4 8 7 18 8 9 0 78 4 152 8 131 6 267 27 302 46 9 5 30 9 47 9 16 0 33 5
36 10 3 6 17 10 30 10 13 0 26 4 29 8 3 4 28 14 55 22 28 7 51 16 51 19 0 4
15 12 33 20 17 8 48 27 68 43 20 15 42 28 48 28 6 0 23 14 38 30 15 17 33 28
40 26 7 -3 13 1 13 8 0 14 74 96 87 96 9 0 73 96 73 109 0 5 3 11 8 13 10 4
112 167 112 180 0 5 9 21 20 35 11 14 20 33 20 42 0 9 9 27 20 41 11 14 20 33
20 43 0 9 5 17 10 17 6 0 10 7 10 15 0 8 13 43 29 77 16 35 34 76 41 92 9 24
13 27 22 15 7 -11 9 -9 5 9 -6 27 9 86 26 104 10 11 33 77 88 254 5 17 9 40 9
52 0 12 4 22 9 22 4 0 11 30 15 68 4 37 14 114 22 172 39 262 7 819 -51 890
-7 8 -18 29 -26 47 -10 24 -16 29 -26 21 -9 -7 -14 -6 -19 6 -5 12 -10 14 -20
6 -10 -9 -15 -2 -24 32 -6 24 -14 51 -17 62 -3 12 -1 16 6 12 8 -5 8 0 1 20
-18 47 -28 104 -19 104 5 0 9 10 9 23 0 18 -2 19 -10 7 -9 -13 -10 -13 -11 0
-1 8 -1 18 0 23 0 4 -4 7 -9 7 -6 0 -10 10 -10 23 0 12 -9 47 -20 77 -23 64
-24 73 -7 65 6 -4 5 -1 -3 7 -8 7 -23 30 -32 51 -10 20 -22 37 -28 37 -5 0
-10 13 -10 28 0 16 -8 34 -20 42 -11 8 -20 20 -20 26 0 6 -10 22 -22 36 -13
13 -35 43 -51 66 -15 23 -32 42 -37 42 -6 0 -10 8 -10 18 0 10 -14 33 -31 52
-76 87 -108 120 -114 120 -3 0 -18 11 -33 25 -15 14 -31 25 -37 25 -5 0 -23
12 -39 26 l-30 26 24 46 c13 24 41 63 62 84 21 22 38 43 38 48 0 4 14 22 30
40 17 18 30 40 30 49 0 14 9 16 64 11 35 -3 62 -2 60 1 -2 4 3 9 11 12 8 4 12
1 9 -6 -3 -8 5 -13 18 -14 18 -2 20 0 8 7 -12 8 -9 10 12 10 15 0 30 5 33 10
3 6 12 10 20 10 7 0 30 16 52 36 21 20 52 49 69 65 21 20 38 27 50 23 13 -4
15 -3 6 3 -9 7 -8 14 8 29 93 89 118 127 119 186 1 39 16 43 66 14 24 -14 50
-26 59 -26 8 0 21 -10 27 -22 7 -13 15 -25 18 -28 12 -10 31 -50 31 -65 0 -9
5 -13 10 -10 9 5 11 -2 10 -30 0 -3 9 -15 20 -27 11 -12 20 -26 20 -31 0 -5 9
-22 21 -38 11 -16 17 -29 12 -29 -4 0 -3 -4 2 -8 27 -20 85 -121 79 -138 -5
-16 -4 -16 5 -4 9 13 15 9 13 -11 0 -3 15 -25 34 -48 19 -24 34 -49 34 -56 0
-7 14 -27 30 -45 17 -18 30 -37 30 -42 0 -5 9 -22 19 -37 17 -24 20 -47 22
-167 2 -183 -9 -832 -16 -957 -4 -61 -2 -97 3 -93 6 3 13 -2 16 -11 7 -16 -11
-36 -25 -27 -4 2 -11 -1 -15 -7 -4 -8 -3 -9 4 -5 19 11 14 -9 -6 -27 -10 -10
-22 -14 -27 -10 -4 5 -5 2 -1 -4 8 -15 -10 -18 -19 -3 -9 15 -37 12 -32 -2 2
-7 12 -12 21 -12 21 2 20 -8 -5 -40 -11 -14 -25 -23 -31 -20 -6 4 -8 2 -4 -4
3 -6 -1 -27 -11 -47 -16 -34 -16 -37 0 -64 11 -19 13 -31 7 -34 -6 -3 -5 -4 2
-3 7 1 36 -17 65 -40 28 -23 60 -47 69 -52 15 -9 16 -13 5 -26 -7 -9 -21 -16
-30 -16 -14 0 -14 -2 -1 -10 8 -5 22 -10 30 -10 13 0 13 1 0 11 -13 9 -13 10
0 6 8 -2 14 -10 12 -16 -1 -6 5 -14 13 -17 8 -4 15 -12 15 -19 0 -7 4 -15 8
-17 4 -1 28 -30 54 -64 30 -39 60 -67 87 -79 23 -10 41 -22 41 -26 0 -5 10 -5
23 0 21 8 24 2 62 -108 29 -82 38 -119 30 -128 -5 -6 -12 -7 -13 -2 -2 5 -8 6
-13 3 -6 -3 -5 -12 3 -21 11 -14 10 -15 -12 -10 -14 4 -19 4 -12 1 6 -3 12
-13 12 -21 0 -9 6 -13 15 -9 8 3 15 2 15 -2 0 -5 8 -17 18 -28 9 -10 25 -31
34 -46 10 -14 31 -29 48 -33 16 -4 32 -11 35 -16 4 -5 15 -9 26 -9 10 0 19 -3
19 -8 0 -4 26 -15 58 -26 50 -16 79 -18 198 -13 151 6 230 21 256 50 16 17 17
17 22 -1 4 -11 4 -26 0 -35 -3 -9 -1 -24 5 -34 9 -15 10 -13 6 12 -3 18 9 -1
30 -44 31 -65 33 -76 20 -84 -8 -4 -24 -17 -34 -28 -18 -19 -18 -25 -5 -82 19
-80 34 -127 50 -152 8 -14 10 -35 5 -67 -5 -30 -4 -45 2 -41 6 4 7 -9 4 -33
-4 -21 -3 -31 1 -22 6 14 10 14 24 4 10 -7 14 -17 10 -21 -4 -4 3 -2 16 4 44
23 54 -9 41 -137 -6 -59 -6 -111 2 -162 7 -41 12 -88 12 -103 0 -16 3 -24 6
-18 5 7 16 -1 29 -19 13 -16 19 -30 14 -30 -5 0 -10 -36 -11 -80 -2 -92 -1
-93 81 -57 29 13 85 34 123 47 89 29 176 75 222 117 19 18 39 33 43 33 11 0
30 49 30 79 0 16 9 49 21 75 16 38 19 58 14 101 -4 30 -12 55 -17 55 -6 0 -8
8 -6 18 3 10 -1 27 -8 37 -8 10 -14 42 -14 71 0 49 -2 53 -34 72 -23 13 -38
33 -46 59 -7 21 -17 43 -22 50 -6 8 -3 13 9 16 15 4 15 5 2 6 -9 0 -19 11 -22
24 -6 25 -33 102 -47 132 -4 11 -11 31 -13 45 -3 14 -10 39 -15 55 -13 38 -31
122 -41 200 -11 77 -21 115 -31 115 -9 0 -20 49 -14 65 3 6 39 29 82 51 42 21
98 53 124 71 26 18 54 33 62 33 8 0 18 5 22 11 3 6 26 20 50 31 24 10 44 23
44 28 0 6 6 10 13 10 14 0 117 63 156 96 13 11 62 57 109 104 82 80 143 133
181 154 9 5 25 18 35 28 11 10 23 18 28 18 14 0 134 88 181 133 16 15 32 27
36 27 14 0 177 179 208 227 9 16 30 43 46 62 15 18 32 44 37 57 5 13 14 24 20
24 5 0 10 4 10 9 0 11 59 110 75 126 6 6 37 11 69 13 44 2 63 8 73 21 12 18
14 18 47 2 19 -9 42 -31 52 -51 22 -42 73 -90 96 -90 9 0 20 -4 23 -10 3 -5
15 -10 26 -10 10 0 19 -5 19 -11 0 -8 14 -10 43 -6 23 3 62 1 87 -4 25 -6 59
-11 75 -11 17 0 52 -11 79 -24 28 -13 58 -24 68 -24 11 0 30 -11 44 -25 14
-14 29 -25 33 -25 4 0 21 -11 37 -25 16 -14 32 -25 36 -25 3 0 41 -34 84 -75
43 -41 81 -75 85 -75 5 0 19 -12 32 -26 22 -24 29 -25 83 -21 129 11 181 35
181 84 1 15 8 55 18 88 9 33 23 83 31 111 8 28 21 59 28 70 13 19 29 64 40
115 3 14 15 36 26 49 20 23 26 57 12 75 -11 15 -47 42 -39 29 4 -6 -3 -10 -16
-9 -12 1 -21 6 -20 11 2 13 -25 26 -37 19 -6 -4 -9 -1 -8 7 2 8 -6 13 -19 12
-12 0 -20 3 -17 7 2 4 -6 10 -18 14 -40 11 -88 39 -88 51 0 13 -36 31 -84 39
-20 4 -36 11 -36 16 0 5 -9 9 -20 9 -13 0 -20 7 -20 20 0 14 -11 22 -42 32
-24 6 -46 17 -50 23 -5 7 -8 6 -8 -2 0 -13 -55 10 -65 28 -4 5 -14 9 -24 9
-10 0 -24 7 -31 15 -7 8 -21 15 -32 15 -10 0 -16 5 -13 10 4 6 -8 10 -29 10
-20 0 -36 4 -36 8 0 5 -32 16 -71 27 -39 10 -73 23 -75 29 -2 6 -21 12 -41 14
-20 1 -39 6 -43 10 -3 4 -27 13 -55 20 -53 14 -75 33 -75 67 0 12 -4 25 -9 31
-10 10 20 113 44 146 8 13 15 28 15 34 0 7 22 50 50 96 86 145 95 167 93 232
-1 54 -5 63 -36 92 -19 18 -38 30 -42 26 -4 -4 -4 4 -1 18 7 24 6 24 -8 6 -9
-11 -16 -14 -16 -8 0 7 -3 11 -7 11 -19 -3 -27 2 -16 9 10 6 9 14 -2 36 -8 16
-15 35 -15 42 0 8 -6 14 -13 14 -7 0 -36 24 -63 54 -28 29 -61 57 -75 61 -13
4 -40 16 -59 26 -19 11 -38 19 -43 19 -5 0 -15 7 -23 15 -9 8 -27 18 -42 21
-15 4 -49 17 -77 29 -27 13 -59 25 -70 29 -20 6 -45 47 -45 73 0 7 -12 15 -27
19 -16 3 -33 7 -39 9 -7 2 -10 -4 -7 -16 4 -15 2 -18 -13 -13 -28 10 -44 25
-39 34 3 5 1 11 -4 15 -6 3 -8 -4 -6 -16 3 -15 0 -19 -10 -16 -7 3 -30 9 -49
13 -20 3 -33 10 -30 15 3 5 -2 6 -10 3 -9 -3 -55 -1 -103 6 -226 31 -366 34
-803 20 -157 -5 -327 -10 -378 -10 -85 0 -92 1 -78 16 20 20 20 41 1 52 -13 7
-14 14 -5 38 14 35 -7 144 -27 144 -6 0 -23 11 -37 25 -22 21 -40 28 -73 24
-4 0 -10 8 -14 18 -7 17 -8 17 -8 0 -1 -10 -5 -16 -11 -12 -5 3 -14 -9 -19
-27 l-9 -33 -1 37 c-1 21 -12 63 -26 95 -16 35 -22 59 -15 61 5 2 10 8 10 13
0 4 -7 6 -15 3 -8 -4 -15 -1 -15 5 0 6 5 11 10 11 6 0 10 5 10 11 0 5 -4 8 -9
5 -5 -3 -11 0 -14 8 -6 14 -115 69 -159 80 -36 8 -36 32 0 50 39 20 132 105
132 121 0 7 7 15 15 18 8 4 23 24 35 47 18 35 20 55 18 141 -3 92 -1 102 17
113 58 33 71 46 84 91 11 36 11 55 2 84 -17 58 -14 81 9 81 11 0 20 4 20 8 0
19 41 51 57 45 11 -4 14 -2 9 5 -8 13 23 52 41 52 7 0 13 5 13 12 0 18 82 88
104 88 15 0 17 3 8 9 -10 6 -1 22 38 62 29 30 62 68 73 84 12 17 29 39 39 49
10 11 20 27 23 37 10 29 38 27 72 -4 24 -23 44 -31 83 -35 62 -6 99 11 166 76
7 6 17 12 23 12 6 0 11 7 11 16 0 9 8 28 19 42 10 15 21 36 23 47 2 11 8 19
14 18 5 -1 8 32 8 75 -2 64 -1 70 6 32 6 -38 7 -40 8 -13 3 46 -18 119 -69
253 -18 46 -67 100 -91 100 -10 0 -18 5 -18 10 0 7 -7 7 -21 -1 -15 -8 -19 -8
-15 0 4 6 2 11 -4 11 -6 0 -13 -7 -17 -15 -5 -14 -8 -14 -24 1 -10 9 -16 21
-13 26 3 4 2 8 -3 7 -18 -4 -63 14 -57 23 3 5 13 7 21 4 8 -3 12 -2 9 3 -3 4
3 16 14 26 24 22 43 79 35 104 -10 31 -181 178 -243 208 -66 32 -155 40 -251
23 -176 -33 -240 -87 -284 -240 -35 -121 -38 -265 -9 -342 15 -37 62 -78 91
-78 22 0 149 59 180 84 12 9 13 7 7 -14 -4 -14 -9 -40 -13 -57 -4 -24 -33 -60
-115 -140 -60 -60 -114 -107 -120 -105 -5 1 -7 -2 -4 -6 3 -5 -3 -17 -13 -26
-10 -10 -21 -14 -23 -9 -3 4 -3 3 -2 -4 4 -16 -22 -37 -30 -24 -3 5 -3 17 0
28 5 17 5 17 -6 0 -8 -13 -9 -22 -1 -31 9 -11 0 -26 -41 -70 -31 -34 -54 -52
-58 -45 -5 7 -9 5 -13 -6 -4 -9 -3 -13 3 -10 17 11 11 -11 -8 -28 -10 -10 -33
-17 -50 -17 -17 0 -34 -5 -37 -11 -5 -6 -12 -4 -20 8 -7 10 -12 20 -10 24 2 3
-1 6 -8 7 -93 15 -95 14 -107 -8 -14 -27 -6 -77 16 -101 15 -17 11 -44 -6 -34
-4 3 -7 -1 -7 -8 2 -28 -16 -107 -25 -107 -5 0 -29 5 -54 11 -43 11 -54 22
-34 34 6 3 10 15 10 26 0 11 4 17 10 14 7 -4 7 3 0 20 -13 33 -13 38 0 30 8
-5 12 18 10 51 -1 3 12 17 28 32 16 15 34 37 40 49 8 14 18 20 30 17 16 -5 16
-5 0 5 -14 9 -15 17 -6 41 7 22 7 39 -1 58 -6 15 -15 110 -20 211 -5 101 -12
186 -17 190 -21 14 -36 61 -30 88 5 21 4 24 -4 13 -8 -13 -10 -13 -10 3 0 9
-6 17 -12 17 -7 0 1 9 19 20 79 48 82 146 7 248 -10 13 -13 22 -8 21 32 -6 66
43 54 76 -6 16 0 23 29 36 47 21 101 67 101 85 0 9 5 12 10 9 6 -4 7 -11 4
-17 -4 -7 -2 -8 5 -4 9 6 9 11 1 21 -12 15 -35 10 -61 -12 -23 -20 -46 -7 -60
34 -8 26 -8 58 2 136 7 56 12 114 12 128 -1 15 7 35 17 47 10 11 17 22 14 24
-2 3 -9 43 -15 89 -9 73 -14 88 -42 117 -17 17 -39 32 -48 32 -10 0 -20 4 -24
9 -3 6 -18 6 -37 0 -18 -5 -28 -5 -22 0 5 5 18 11 29 13 16 3 20 11 20 43 0
34 -3 40 -20 37 -11 -1 -30 -4 -42 -5 -12 -1 -19 -4 -17 -6 2 -2 -19 -20 -48
-39 -29 -19 -63 -48 -76 -64 -13 -15 -28 -25 -33 -22 -5 3 -8 2 -7 -3 4 -14
-23 -54 -32 -48 -6 3 -7 0 -5 -7 6 -14 -51 -98 -66 -98 -7 0 -6 23 6 83 2 9
-1 15 -6 11 -9 -5 -11 1 -13 41 -1 14 -7 19 -21 17 -19 -2 -19 -2 -2 12 12 9
14 16 8 21 -6 3 -11 1 -11 -4 0 -6 -4 -11 -10 -11 -5 0 -10 7 -10 14 0 24 -66
68 -97 65 -15 -2 -38 2 -50 9 -12 7 -35 12 -52 12 -22 0 -32 6 -37 23 -5 12
-7 26 -5 32 1 5 -1 7 -5 3 -4 -4 -14 0 -23 10 -49 55 -110 69 -129 28 -10 -22
-14 -23 -54 -15 -125 25 -146 23 -115 -11 6 -8 2 -6 -11 4 -12 11 -20 21 -17
24 3 3 -2 14 -12 24 -12 13 -13 18 -3 18 7 0 11 2 8 5 -3 3 -12 3 -21 -1 -15
-5 -14 -8 6 -25 32 -27 13 -23 -31 6 -56 37 -138 52 -199 36 -26 -6 -53 -12
-60 -13 -6 -1 -14 -12 -18 -25 -3 -13 -10 -21 -16 -18 -7 5 -7 11 0 19 11 14
5 26 -13 26 -6 0 -5 -4 3 -9 8 -5 9 -11 3 -15 -6 -3 -42 10 -80 29 -80 40
-168 49 -192 20z m94 -27 c-3 -4 -11 -5 -19 -1 -21 7 -19 12 4 10 11 0 18 -5
15 -9z m309 -25 c-7 -2 -21 -2 -30 0 -10 3 -4 5 12 5 17 0 24 -2 18 -5z m-167
-29 c18 -14 18 -14 -6 -3 -31 14 -36 19 -24 19 6 0 19 -7 30 -16z m634 -18 c0
-3 -4 -8 -10 -11 -5 -3 -10 -1 -10 4 0 6 5 11 10 11 6 0 10 -2 10 -4z m-247
-46 c3 -11 2 -18 -3 -15 -4 3 -10 14 -13 25 -3 11 -2 18 3 15 4 -3 10 -14 13
-25z m144 4 c-3 -3 -12 -4 -19 -1 -8 3 -5 6 6 6 11 1 17 -2 13 -5z m183 -34
c0 -5 -5 -10 -11 -10 -5 0 -7 5 -4 10 3 6 8 10 11 10 2 0 4 -4 4 -10z m630
-25 c0 -2 -13 -11 -30 -20 -38 -19 -40 -11 -2 9 31 17 32 18 32 11z m-550 -9
c0 -2 -11 -6 -25 -8 -13 -3 -22 -1 -19 3 5 9 44 13 44 5z m-90 -16 c-8 -5 -19
-10 -25 -10 -5 0 -3 5 5 10 8 5 20 10 25 10 6 0 3 -5 -5 -10z m-90 -3 c0 -2
-12 -14 -27 -28 l-28 -24 24 28 c23 25 31 32 31 24z m660 -11 c0 -2 -8 -10
-17 -17 -16 -13 -17 -12 -4 4 13 16 21 21 21 13z m-620 -9 c0 -2 -17 -19 -37
-38 l-38 -34 34 38 c33 34 41 42 41 34z m613 -42 c-3 -9 -8 -14 -10 -11 -3 3
-2 9 2 15 9 16 15 13 8 -4z m-55 -9 c-7 -8 -15 -12 -17 -11 -5 6 10 25 20 25
5 0 4 -6 -3 -14z m-1601 -22 c-3 -3 -12 -4 -19 -1 -8 3 -5 6 6 6 11 1 17 -2
13 -5z m40 0 c-3 -3 -12 -4 -19 -1 -8 3 -5 6 6 6 11 1 17 -2 13 -5z m1594 -21
c-12 -20 -14 -14 -5 12 4 9 9 14 11 11 3 -2 0 -13 -6 -23z m-80 -16 l-23 -22
17 28 c10 15 20 25 23 22 3 -3 -5 -16 -17 -28z m-604 -39 c-3 -8 -6 -5 -6 6
-1 11 2 17 5 13 3 -3 4 -12 1 -19z m-982 2 c3 -6 -1 -7 -9 -4 -18 7 -21 14 -7
14 6 0 13 -4 16 -10z m1260 -8 c-3 -3 -11 0 -18 7 -9 10 -8 11 6 5 10 -3 15
-9 12 -12z m382 -79 c-2 -16 -4 -3 -4 27 0 30 2 43 4 28 2 -16 2 -40 0 -55z
m-406 41 c23 -25 23 -26 2 -13 -13 7 -25 19 -27 26 -8 19 -2 16 25 -13z m302
11 c-3 -9 -8 -14 -10 -11 -3 3 -2 9 2 15 9 16 15 13 8 -4z m-203 -31 c0 -8
-19 -13 -24 -6 -3 5 1 9 9 9 8 0 15 -2 15 -3z m70 2 c0 -2 -7 -7 -16 -10 -8
-3 -12 -2 -9 4 6 10 25 14 25 6z m-129 -33 c13 -16 12 -17 -3 -4 -10 7 -18 15
-18 17 0 8 8 3 21 -13z m202 4 c-2 -4 -17 -6 -33 -5 -37 3 -31 13 8 13 17 0
28 -3 25 -8z m227 -22 c0 -12 -19 -12 -23 0 -4 9 -1 12 9 8 7 -3 14 -7 14 -8z
m180 -48 c0 -12 0 -11 -24 28 l-17 30 20 -24 c12 -13 21 -28 21 -34z m-983 11
c-3 -8 -6 -5 -6 6 -1 11 2 17 5 13 3 -3 4 -12 1 -19z m833 8 c0 -2 -8 -10 -17
-17 -16 -13 -17 -12 -4 4 13 16 21 21 21 13z m-799 -39 c-10 -9 -11 -8 -5 6 3
10 9 15 12 12 3 -3 0 -11 -7 -18z m-51 -20 c0 -7 -7 -22 -15 -33 -13 -17 -13
-16 -3 14 13 34 18 40 18 19z m30 -36 c-6 -12 -8 -27 -4 -33 4 -7 3 -8 -4 -4
-7 4 -12 4 -12 -1 0 -4 -11 -21 -25 -38 -18 -22 -15 -14 10 29 19 33 35 64 35
70 0 5 3 7 6 4 3 -4 1 -16 -6 -27z m-1135 -61 c3 -6 -1 -7 -9 -4 -18 7 -21 14
-7 14 6 0 13 -4 16 -10z m296 -13 c-10 -9 -11 -8 -5 6 3 10 9 15 12 12 3 -3 0
-11 -7 -18z m-427 -5 c3 -5 -1 -9 -9 -9 -8 0 -12 4 -9 9 3 4 7 8 9 8 2 0 6 -4
9 -8z m167 -9 c13 -16 12 -17 -3 -4 -10 7 -18 15 -18 17 0 8 8 3 21 -13z m989
-6 c0 -2 -15 -16 -32 -33 l-33 -29 29 33 c28 30 36 37 36 29z m-807 -24 c-7
-2 -21 -2 -30 0 -10 3 -4 5 12 5 17 0 24 -2 18 -5z m1864 -65 c-2 -13 -4 -3
-4 22 0 25 2 35 4 23 2 -13 2 -33 0 -45z m-1037 49 c0 -2 -12 -14 -27 -28
l-28 -24 24 28 c23 25 31 32 31 24z m-629 -34 c13 -16 12 -17 -3 -4 -17 13
-22 21 -14 21 2 0 10 -8 17 -17z m526 11 c-3 -3 -12 -4 -19 -1 -8 3 -5 6 6 6
11 1 17 -2 13 -5z m-219 -59 c-3 -3 -13 7 -23 22 l-17 28 23 -22 c12 -12 20
-25 17 -28z m-163 15 c-3 -5 -12 -10 -18 -10 -7 0 -6 4 3 10 19 12 23 12 15 0z
m-139 -25 c20 -14 33 -25 27 -25 -5 0 -24 11 -43 25 -19 14 -31 25 -27 25 3 0
23 -11 43 -25z m189 5 c-10 -11 -22 -20 -28 -20 -5 0 1 9 14 20 31 25 37 25
14 0z m1346 -3 c-10 -9 -11 -8 -5 6 3 10 9 15 12 12 3 -3 0 -11 -7 -18z
m-1085 -14 c-3 -17 -26 -32 -26 -16 0 8 20 33 26 33 1 0 1 -8 0 -17z m1238 -9
c3 -8 2 -12 -4 -9 -6 3 -10 10 -10 16 0 14 7 11 14 -7z m-169 -4 c-3 -5 -12
-10 -18 -10 -7 0 -6 4 3 10 19 12 23 12 15 0z m-1398 -6 c-3 -3 -12 -4 -19 -1
-8 3 -5 6 6 6 11 1 17 -2 13 -5z m313 -39 c33 -19 21 -19 -21 0 -19 8 -27 14
-19 14 8 0 26 -6 40 -14z m117 9 c-3 -3 -12 -4 -19 -1 -8 3 -5 6 6 6 11 1 17
-2 13 -5z m2063 -21 c30 -12 33 -16 18 -24 -10 -6 -18 -20 -18 -32 0 -27 -16
-54 -26 -44 -4 4 -13 2 -20 -4 -9 -7 -20 -6 -38 6 -31 21 -40 46 -31 91 6 34
7 35 43 28 20 -4 53 -13 72 -21z m-1880 7 c-8 -5 -19 -10 -25 -10 -5 0 -3 5 5
10 8 5 20 10 25 10 6 0 3 -5 -5 -10z m45 -59 c-3 -6 3 -14 12 -20 10 -6 13
-11 6 -11 -6 0 -15 5 -18 10 -5 8 -12 7 -23 -2 -12 -9 -11 -6 2 10 19 22 32
30 21 13z m759 -17 c3 -8 2 -12 -4 -9 -6 3 -10 10 -10 16 0 14 7 11 14 -7z
m-429 -12 c-3 -3 -11 0 -18 7 -9 10 -8 11 6 5 10 -3 15 -9 12 -12z m-1945 -7
c0 -2 -10 -9 -22 -15 -22 -11 -22 -10 -4 4 21 17 26 19 26 11z m3118 -30 c22
-47 15 -72 -20 -79 -55 -11 -95 47 -57 85 27 27 63 25 77 -6z m-1521 -22 c-3
-10 -5 -4 -5 12 0 17 2 24 5 18 2 -7 2 -21 0 -30z m40 -15 c-3 -8 -6 -5 -6 6
-1 11 2 17 5 13 3 -3 4 -12 1 -19z m814 -25 c13 -16 12 -17 -3 -4 -10 7 -18
15 -18 17 0 8 8 3 21 -13z m1013 -16 c24 -18 17 -55 -16 -80 -51 -38 -105 4
-70 55 28 41 54 48 86 25z m-1899 -17 c-3 -5 -14 -10 -23 -9 -14 0 -13 2 3 9
27 11 27 11 20 0z m912 -32 c-3 -8 -6 -5 -6 6 -1 11 2 17 5 13 3 -3 4 -12 1
-19z m-1197 -13 c14 -19 14 -19 -2 -6 -10 7 -18 18 -18 24 0 6 1 8 3 6 1 -2 9
-13 17 -24z m1147 -47 c-3 -7 -5 -2 -5 12 0 14 2 19 5 13 2 -7 2 -19 0 -25z
m-1060 16 c-3 -3 -12 -4 -19 -1 -8 3 -5 6 6 6 11 1 17 -2 13 -5z m1105 -30
c-9 -16 -10 -14 -9 8 1 15 6 23 11 18 4 -4 4 -16 -2 -26z m-135 -7 c-12 -13
-24 -22 -26 -20 -6 4 30 43 40 43 5 0 -2 -10 -14 -23z m-2520 -3 c-3 -3 -12
-4 -19 -1 -8 3 -5 6 6 6 11 1 17 -2 13 -5z m1566 -11 c-7 -2 -21 -2 -30 0 -10
3 -4 5 12 5 17 0 24 -2 18 -5z m-89 -32 c-2 -3 -12 3 -22 13 -16 17 -16 18 5
5 12 -7 20 -15 17 -18z m2346 4 c58 -30 100 -108 100 -187 0 -41 -5 -53 -27
-74 -25 -23 -34 -26 -91 -22 -54 3 -67 8 -94 35 -26 26 -32 42 -36 88 -2 31 1
83 8 115 l13 60 49 0 c27 0 62 -7 78 -15z m-2172 -15 c-7 -10 -14 -17 -17 -15
-4 4 18 35 25 35 2 0 -1 -9 -8 -20z m-1855 -10 c-3 -12 -8 -19 -11 -16 -5 6 5
36 12 36 2 0 2 -9 -1 -20z m1797 5 c-14 -17 -30 -20 -30 -4 0 5 4 8 9 4 5 -3
12 -1 16 5 3 5 9 10 12 10 3 0 0 -7 -7 -15z m1670 -4 c22 -42 -28 -93 -74 -75
-19 7 -22 64 -4 82 19 19 66 15 78 -7z m370 4 c-14 -7 -27 -11 -30 -9 -6 7 22
24 40 23 9 0 5 -6 -10 -14z m-1300 -15 c6 -11 8 -20 6 -20 -3 0 -10 9 -16 20
-6 11 -8 20 -6 20 3 0 10 -9 16 -20z m197 4 c-3 -3 -12 -4 -19 -1 -8 3 -5 6 6
6 11 1 17 -2 13 -5z m-1409 -11 c-10 -2 -26 -2 -35 0 -10 3 -2 5 17 5 19 0 27
-2 18 -5z m49 1 c-3 -3 -12 -4 -19 -1 -8 3 -5 6 6 6 11 1 17 -2 13 -5z m73
-30 c0 -2 -13 2 -30 11 -16 9 -30 18 -30 21 0 2 14 -2 30 -11 17 -9 30 -18 30
-21z m2400 -26 c0 -28 -2 -49 -4 -47 -8 8 -12 108 -4 103 4 -3 8 -28 8 -56z
m-2575 42 c3 -5 1 -10 -4 -10 -6 0 -11 5 -11 10 0 6 2 10 4 10 3 0 8 -4 11
-10z m495 6 c0 -2 -7 -7 -16 -10 -8 -3 -12 -2 -9 4 6 10 25 14 25 6z m65 -6
c3 -5 1 -10 -4 -10 -6 0 -11 5 -11 10 0 6 2 10 4 10 3 0 8 -4 11 -10z m410
-40 c10 -46 0 -36 -14 14 -5 22 -6 35 -2 30 5 -5 12 -25 16 -44z m1510 28
c-22 -11 -42 -25 -43 -29 -2 -5 -8 -7 -13 -3 -5 3 -9 1 -9 -4 0 -6 -8 -8 -19
-5 -11 3 -21 -2 -24 -11 -9 -23 -26 -20 -20 4 3 11 8 18 12 16 3 -2 35 9 71
24 78 33 101 37 45 8z m-3025 -23 c19 -19 32 -35 29 -35 -3 0 -20 16 -39 35
-19 19 -32 35 -29 35 3 0 20 -16 39 -35z m75 24 c16 -8 15 -8 -8 -4 -22 4 -27
3 -21 -7 6 -10 3 -9 -9 1 -9 7 -17 15 -17 17 0 7 35 3 55 -7z m1822 -11 c-3
-8 -6 -5 -6 6 -1 11 2 17 5 13 3 -3 4 -12 1 -19z m-1716 -5 c13 -16 12 -17 -3
-4 -17 13 -22 21 -14 21 2 0 10 -8 17 -17z m1660 0 c13 -16 12 -17 -3 -4 -10
7 -18 15 -18 17 0 8 8 3 21 -13z m96 -50 c-2 -16 -4 -5 -4 22 0 28 2 40 4 28
2 -13 2 -35 0 -50z m1491 42 c-3 -3 -9 2 -12 12 -6 14 -5 15 5 6 7 -7 10 -15
7 -18z m-2860 -33 c15 -6 36 -13 47 -18 23 -8 32 -10 60 -13 14 -1 3 -10 -31
-25 -59 -27 -165 -93 -176 -110 -25 -37 12 -43 49 -8 40 36 130 84 214 112
l67 22 22 -22 c29 -29 81 -50 125 -50 31 0 35 -3 35 -25 0 -16 -4 -23 -13 -19
-28 10 -147 -58 -147 -85 0 -5 -8 -14 -17 -20 -15 -8 -18 -25 -18 -108 0 -92
2 -100 28 -135 61 -79 202 -105 281 -52 55 37 72 57 87 98 10 27 19 36 35 36
12 0 29 3 37 6 11 4 20 -13 37 -68 34 -111 19 -164 -97 -360 -32 -54 -69 -110
-83 -126 -14 -16 -27 -33 -30 -38 -3 -5 -9 -8 -13 -6 -5 1 -6 -2 -3 -6 3 -5
-6 -18 -21 -28 -35 -25 -108 -95 -119 -115 -5 -9 -31 -32 -57 -52 -41 -31 -52
-35 -70 -26 -12 6 0 -10 28 -35 27 -25 46 -46 41 -46 -4 0 -21 14 -38 30 -35
35 -76 39 -103 10 -10 -11 -23 -20 -28 -20 -6 0 0 9 13 20 13 11 21 22 19 24
-2 3 -19 -8 -36 -23 -18 -16 -29 -31 -26 -35 4 -4 -1 -4 -11 0 -13 5 -17 4
-12 -4 9 -15 -72 -38 -183 -53 -96 -13 -339 -7 -368 9 -13 8 -23 6 -36 -5 -14
-13 -20 -14 -30 -4 -9 10 -9 11 4 6 36 -14 27 17 -18 63 -26 26 -64 71 -83
100 -19 29 -39 51 -45 49 -5 -2 -18 -19 -27 -38 -21 -43 -24 -29 -2 16 8 18
24 35 34 38 16 4 18 11 13 43 -7 51 -41 86 -103 108 -52 19 -120 83 -120 114
0 9 -3 28 -6 42 -4 20 -3 22 5 10 7 -10 11 -11 11 -2 0 6 8 12 19 12 22 0 54
60 49 93 -2 14 6 29 19 40 13 10 23 25 23 32 0 8 9 19 19 24 30 17 64 95 56
131 -6 26 -4 30 15 30 33 0 67 28 84 71 20 49 20 59 1 59 -24 0 -6 27 33 51
21 11 41 27 45 35 5 8 14 11 20 8 7 -4 9 -4 5 1 -4 4 2 25 12 46 11 21 20 55
21 76 0 21 3 31 6 23 7 -18 42 -49 57 -52 22 -3 31 -5 49 -13 10 -4 23 -2 31
4 11 9 15 9 19 -1 4 -9 6 -9 6 2 1 8 15 30 31 49 16 18 27 37 24 42 -9 15 13
10 27 -7 19 -23 64 -44 94 -44 15 0 51 13 80 29 29 16 56 27 60 23 3 -4 3 1
-1 11 -3 9 -12 17 -19 17 -23 0 -45 30 -44 58 1 22 2 23 6 5 2 -11 16 -26 31
-31z m1226 32 c3 -8 2 -12 -4 -9 -6 3 -10 10 -10 16 0 14 7 11 14 -7z m-1697
-57 c2 -12 1 -18 -3 -15 -3 3 -7 12 -8 20 -1 7 -8 24 -14 38 l-13 25 18 -24
c9 -13 19 -33 20 -44z m728 43 c10 -11 16 -20 13 -20 -3 0 -13 9 -23 20 -10
11 -16 20 -13 20 3 0 13 -9 23 -20z m732 -2 c-3 -8 -6 -5 -6 6 -1 11 2 17 5
13 3 -3 4 -12 1 -19z m-1427 8 c0 -2 -7 -7 -16 -10 -8 -3 -12 -2 -9 4 6 10 25
14 25 6z m367 -33 c-3 -10 -5 -4 -5 12 0 17 2 24 5 18 2 -7 2 -21 0 -30z m277
6 c-3 -5 -11 -9 -17 -8 -8 0 -8 2 1 6 10 4 10 8 0 21 -12 15 -11 16 4 3 10 -7
15 -17 12 -22z m331 12 c3 -5 2 -12 -3 -15 -5 -3 -9 1 -9 9 0 17 3 19 12 6z
m-798 -23 c-3 -8 -6 -5 -6 6 -1 11 2 17 5 13 3 -3 4 -12 1 -19z m2666 15 c-7
-3 -13 -14 -13 -24 0 -13 4 -18 12 -13 6 4 8 3 4 -4 -3 -6 6 -24 22 -40 16
-16 32 -38 36 -48 10 -28 -60 55 -82 97 l-20 37 27 -1 c14 0 20 -2 14 -4z
m-2798 -23 c3 -6 -1 -7 -9 -4 -18 7 -21 14 -7 14 6 0 13 -4 16 -10z m215 -15
c14 -19 14 -19 -2 -6 -10 7 -18 18 -18 24 0 6 1 8 3 6 1 -2 9 -13 17 -24z
m1177 -47 c-2 -13 -4 -3 -4 22 0 25 2 35 4 23 2 -13 2 -33 0 -45z m1371 10
c17 -29 66 -90 108 -136 61 -66 74 -86 64 -95 -10 -9 -11 -9 -6 1 5 7 -10 31
-38 60 -66 69 -126 142 -126 153 0 6 -5 7 -12 3 -6 -4 -8 -3 -5 2 3 6 1 16 -4
24 -8 12 -12 12 -16 3 -9 -23 -20 -14 -15 12 2 14 7 25 11 25 4 0 21 -24 39
-52z m-3122 20 c12 -14 13 -18 3 -10 -9 6 -18 10 -21 7 -2 -3 -5 2 -5 10 0 19
0 19 23 -7z m1054 7 c11 -13 10 -14 -4 -9 -9 3 -16 10 -16 15 0 13 6 11 20 -6z
m260 5 c0 -5 -5 -10 -11 -10 -5 0 -7 5 -4 10 3 6 8 10 11 10 2 0 4 -4 4 -10z
m397 -37 c-3 -10 -5 -2 -5 17 0 19 2 27 5 18 2 -10 2 -26 0 -35z m1590 10 c-3
-10 -5 -4 -5 12 0 17 2 24 5 18 2 -7 2 -21 0 -30z m-2907 -16 c0 -16 -18 3
-23 25 -6 22 -5 22 8 4 8 -11 15 -24 15 -29z m80 23 c-6 -11 -13 -20 -16 -20
-2 0 0 9 6 20 6 11 13 20 16 20 2 0 0 -9 -6 -20z m1462 -5 c2 3 5 -2 5 -10 0
-19 0 -19 -23 7 -12 14 -13 18 -3 10 9 -6 18 -10 21 -7z m-1832 -20 c13 -14
21 -25 18 -25 -2 0 -15 11 -28 25 -13 14 -21 25 -18 25 2 0 15 -11 28 -25z
m147 -7 c-3 -8 -6 -5 -6 6 -1 11 2 17 5 13 3 -3 4 -12 1 -19z m1083 -19 c7
-11 9 -23 6 -27 -3 -3 -6 0 -6 6 0 6 -7 18 -16 26 -8 9 -11 16 -5 16 6 0 15
-9 21 -21z m764 0 c-3 -5 -10 -7 -15 -3 -5 3 -7 10 -3 15 3 5 10 7 15 3 5 -3
7 -10 3 -15z m1229 -17 l17 -37 -25 30 c-25 30 -31 45 -17 45 4 0 15 -17 25
-38z m-2952 -5 c-10 -9 -11 -8 -5 6 3 10 9 15 12 12 3 -3 0 -11 -7 -18z m1329
9 c0 -2 -7 -7 -16 -10 -8 -3 -12 -2 -9 4 6 10 25 14 25 6z m418 -22 c6 -12 7
-26 2 -34 -7 -12 -9 -10 -8 5 0 11 -3 29 -7 40 -10 24 -2 18 13 -11z m948 -6
c-3 -22 39 -97 95 -169 16 -20 26 -39 24 -43 -3 -3 0 -2 6 3 6 5 18 7 27 4 11
-5 13 -3 7 8 -4 8 -5 11 0 7 4 -4 15 -2 24 4 9 8 8 3 -3 -10 -11 -13 -26 -20
-34 -17 -12 4 -12 2 -3 -8 9 -12 -19 -44 -144 -166 -89 -86 -161 -148 -167
-145 -6 4 -8 3 -5 -3 3 -5 -10 -25 -31 -44 -20 -19 -29 -25 -19 -13 9 11 14
23 11 27 -4 3 -8 20 -10 36 -6 50 -44 97 -102 125 -53 26 -55 26 -75 9 -31
-26 54 75 100 119 21 20 43 38 48 39 6 0 9 5 8 9 -2 6 112 124 230 237 17 16
17 16 13 -9z m-1719 -20 c-3 -8 -6 -5 -6 6 -1 11 2 17 5 13 3 -3 4 -12 1 -19z
m588 12 c-3 -5 -12 -10 -18 -10 -7 0 -6 4 3 10 19 12 23 12 15 0z m1339 -39
c-5 -7 -24 11 -35 32 -11 20 -9 20 13 -3 13 -14 23 -27 22 -29z m-3757 33 c-3
-3 -12 -4 -19 -1 -8 3 -5 6 6 6 11 1 17 -2 13 -5z m3962 -32 c54 -4 67 -2 78
14 14 20 18 7 4 -15 -5 -8 -27 -13 -54 -14 -25 0 -44 -4 -42 -8 3 -4 -12 2
-32 12 -21 11 -45 19 -54 19 -9 0 -19 6 -22 14 -4 11 1 10 26 -2 18 -9 61 -18
96 -20z m-1308 -37 l10 -20 -16 20 c-9 11 -21 29 -26 40 l-10 20 16 -20 c9
-11 21 -29 26 -40z m1448 29 c23 -29 28 -64 9 -64 -6 0 -8 -3 -5 -6 9 -9 -30
-62 -54 -75 -20 -10 -20 -9 -4 20 8 17 21 30 28 28 6 -1 12 5 12 13 0 8 6 19
13 23 19 13 14 34 -13 55 -26 21 -32 32 -16 32 5 0 19 -12 30 -26z m-4072 1
c0 -8 -4 -12 -9 -9 -5 3 -6 10 -3 15 9 13 12 11 12 -6z m2278 -13 c-3 -3 -11
0 -18 7 -9 10 -8 11 6 5 10 -3 15 -9 12 -12z m125 14 c0 -2 -7 -7 -16 -10 -8
-3 -12 -2 -9 4 6 10 25 14 25 6z m1383 -58 c7 -4 8 -8 3 -8 -18 0 -46 33 -46
54 0 18 3 16 16 -9 8 -16 21 -33 27 -37z m-1266 20 c-3 -8 -6 -5 -6 6 -1 11 2
17 5 13 3 -3 4 -12 1 -19z m-1892 3 c3 -5 2 -12 -3 -15 -5 -3 -9 1 -9 9 0 17
3 19 12 6z m1705 -1 c-8 -5 -19 -10 -25 -10 -5 0 -3 5 5 10 8 5 20 10 25 10 6
0 3 -5 -5 -10z m-682 -25 c-3 -3 -9 2 -12 12 -6 14 -5 15 5 6 7 -7 10 -15 7
-18z m252 15 c18 -12 2 -12 -25 0 -13 6 -15 9 -5 9 8 0 22 -4 30 -9z m-93 -52
c-2 -13 -4 -5 -4 17 -1 22 1 32 4 23 2 -10 2 -28 0 -40z m-42 22 c-3 -5 -14
-10 -23 -9 -14 0 -13 2 3 9 27 11 27 11 20 0z m482 4 c-3 -3 -12 -4 -19 -1 -8
3 -5 6 6 6 11 1 17 -2 13 -5z m1586 -19 c4 3 5 2 2 -2 -8 -10 16 -33 36 -33
10 0 23 -8 28 -19 8 -14 20 -18 50 -16 23 1 39 -1 36 -4 -2 -4 -26 -8 -53 -8
-44 -1 -49 0 -45 18 4 14 0 19 -14 19 -19 0 -53 30 -67 60 -5 9 -2 9 7 -2 8
-10 17 -16 20 -13z m-2116 9 c-3 -3 -12 -4 -19 -1 -8 3 -5 6 6 6 11 1 17 -2
13 -5z m250 -16 c-3 -8 -6 -5 -6 6 -1 11 2 17 5 13 3 -3 4 -12 1 -19z m720 0
c-3 -8 -6 -5 -6 6 -1 11 2 17 5 13 3 -3 4 -12 1 -19z m1103 -22 c0 -2 -7 -7
-16 -10 -8 -3 -12 -2 -9 4 6 10 25 14 25 6z m-1795 -35 c-6 -5 -25 10 -25 20
0 5 6 4 14 -3 8 -7 12 -15 11 -17z m690 10 c3 -5 2 -12 -3 -15 -5 -3 -9 1 -9
9 0 17 3 19 12 6z m1393 -11 c-7 -10 -14 -17 -17 -15 -4 4 18 35 25 35 2 0 -1
-9 -8 -20z m-3891 -12 c-3 -8 -6 -5 -6 6 -1 11 2 17 5 13 3 -3 4 -12 1 -19z
m64 5 c13 -16 12 -17 -3 -4 -17 13 -22 21 -14 21 2 0 10 -8 17 -17z m323 -2
c3 -5 -2 -15 -12 -22 -15 -12 -16 -12 -5 2 7 9 10 19 6 22 -3 4 -4 7 0 7 3 0
8 -4 11 -9z m1225 -36 c16 -20 16 -20 -6 -1 -13 11 -23 26 -22 35 0 14 1 14 6
1 3 -8 13 -24 22 -35z m531 25 c-13 -24 -16 -25 -24 -4 -3 8 -2 12 3 9 5 -3
12 -1 16 5 11 19 16 10 5 -10z m-443 4 c-3 -3 -12 -4 -19 -1 -8 3 -5 6 6 6 11
1 17 -2 13 -5z m374 -11 c13 -16 12 -17 -3 -5 -19 15 -42 7 -32 -11 4 -7 4 -9
-1 -5 -4 4 -15 2 -24 -4 -9 -7 -5 0 8 15 29 32 34 33 52 10z m1597 -8 c-3 -3
-9 2 -12 12 -6 14 -5 15 5 6 7 -7 10 -15 7 -18z m-1401 -9 l28 -25 -32 -32
-32 -33 -36 19 c-37 21 -41 29 -25 69 13 35 58 35 97 2z m-362 3 c11 -16 1
-19 -13 -3 -7 8 -8 14 -3 14 5 0 13 -5 16 -11z m57 -3 c7 4 8 2 4 -5 -9 -13
-26 -5 -25 12 0 9 2 8 6 -1 2 -6 10 -9 15 -6z m-1842 -84 c0 -2 -4 0 -10 3
-51 31 -68 -8 -21 -47 16 -14 34 -35 41 -49 7 -13 -7 -2 -31 25 -48 54 -69 95
-69 134 0 25 1 25 45 -18 25 -24 45 -46 45 -48z m3695 78 c-3 -5 -12 -10 -18
-10 -7 0 -6 4 3 10 19 12 23 12 15 0z m-4090 -40 c-10 -11 -22 -20 -28 -20 -5
0 1 9 14 20 31 25 37 25 14 0z m2383 -5 c-3 -3 -9 2 -12 12 -6 14 -5 15 5 6 7
-7 10 -15 7 -18z m-2768 11 c0 -3 -4 -8 -10 -11 -5 -3 -10 -1 -10 4 0 6 5 11
10 11 6 0 10 -2 10 -4z m53 -3 c-7 -2 -19 -2 -25 0 -7 3 -2 5 12 5 14 0 19 -2
13 -5z m240 0 c-7 -2 -21 -2 -30 0 -10 3 -4 5 12 5 17 0 24 -2 18 -5z m364
-25 c-3 -8 -6 -5 -6 6 -1 11 2 17 5 13 3 -3 4 -12 1 -19z m2540 -15 c-3 -10
-5 -4 -5 12 0 17 2 24 5 18 2 -7 2 -21 0 -30z m-212 17 c3 -5 -1 -10 -10 -10
-9 0 -13 5 -10 10 3 6 8 10 10 10 2 0 7 -4 10 -10z m-408 -22 c-3 -8 -6 -5 -6
6 -1 11 2 17 5 13 3 -3 4 -12 1 -19z m-2602 2 c3 -5 1 -10 -4 -10 -6 0 -11 5
-11 10 0 6 2 10 4 10 3 0 8 -4 11 -10z m962 -12 c-3 -8 -6 -5 -6 6 -1 11 2 17
5 13 3 -3 4 -12 1 -19z m1690 -10 c-3 -8 -6 -5 -6 6 -1 11 2 17 5 13 3 -3 4
-12 1 -19z m1453 19 c0 -2 -12 -14 -27 -28 l-28 -24 24 28 c23 25 31 32 31 24z
m-3256 -38 c27 -32 43 -75 32 -86 -3 -4 -6 4 -6 16 0 12 -4 20 -8 17 -4 -2 -8
4 -9 14 -2 21 -38 62 -47 53 -3 -4 -6 -1 -6 5 0 21 17 13 44 -19z m1931 12
c-3 -6 -11 -11 -16 -11 -5 0 -4 6 3 14 14 16 24 13 13 -3z m95 4 c0 -16 -9
-19 -34 -9 -25 9 -19 24 9 24 16 0 25 -6 25 -15z m-379 -22 c13 -16 12 -17 -3
-4 -10 7 -18 15 -18 17 0 8 8 3 21 -13z m-2034 -15 c-3 -8 -6 -5 -6 6 -1 11 2
17 5 13 3 -3 4 -12 1 -19z m2608 11 c11 -16 1 -19 -13 -3 -7 8 -8 14 -3 14 5
0 13 -5 16 -11z m-3108 -5 c-3 -3 -12 -4 -19 -1 -8 3 -5 6 6 6 11 1 17 -2 13
-5z m90 0 c-3 -3 -12 -4 -19 -1 -8 3 -5 6 6 6 11 1 17 -2 13 -5z m2780 -26
c19 -18 23 -31 23 -86 l0 -64 -32 6 c-34 7 -108 51 -108 64 0 9 80 102 88 102
3 0 16 -10 29 -22z m-2722 -8 c3 -5 1 -10 -4 -10 -6 0 -11 5 -11 10 0 6 2 10
4 10 3 0 8 -4 11 -10z m3005 -10 c6 -11 8 -20 6 -20 -3 0 -10 9 -16 20 -6 11
-8 20 -6 20 3 0 10 -9 16 -20z m-2643 -37 c-3 -10 -5 -2 -5 17 0 19 2 27 5 18
2 -10 2 -26 0 -35z m2253 43 c0 -2 -6 -9 -14 -15 -11 -9 -16 -9 -22 0 -4 7 -3
9 4 5 6 -3 13 -2 17 4 6 10 15 14 15 6z m664 -12 c9 -8 21 -24 26 -35 13 -23
28 -24 51 -3 25 23 65 11 105 -32 18 -18 35 -47 39 -64 5 -23 12 -30 30 -30
48 0 92 -94 61 -129 -15 -17 -14 -21 23 -57 38 -39 69 -113 56 -134 -9 -15
-52 -12 -69 6 -9 8 -20 12 -26 9 -5 -3 -10 2 -10 13 0 26 -30 111 -42 118 -18
11 -19 -4 -4 -57 20 -68 20 -103 -1 -120 -15 -13 -15 -12 -5 7 10 19 6 29 -30
73 -23 28 -47 51 -54 51 -8 0 -16 -20 -20 -47 l-7 -48 -12 35 c-17 48 -62 137
-74 144 -23 15 -19 -18 9 -74 17 -33 34 -77 39 -98 4 -20 13 -36 19 -35 6 2 9
-3 6 -11 -3 -8 0 -17 6 -21 8 -5 8 -11 1 -19 -6 -7 -15 -66 -21 -131 -10 -132
-18 -146 -84 -169 -62 -21 -138 -4 -226 53 -49 32 -65 38 -54 19 4 -7 3 -8 -5
-4 -6 4 -9 11 -6 16 3 4 -2 10 -10 14 -8 3 -15 14 -15 25 0 11 -4 23 -10 26
-5 3 -40 50 -76 103 -76 109 -112 152 -130 152 -6 0 -14 7 -18 15 -4 12 3 15
29 15 44 0 125 21 125 33 0 5 -10 17 -22 28 -20 15 -20 18 -6 19 10 0 26 17
37 38 26 50 42 63 90 69 44 6 169 -13 188 -29 18 -15 33 0 33 34 0 17 5 48 12
69 9 31 16 39 35 39 29 0 86 -28 174 -86 67 -44 94 -54 87 -32 -6 17 -132 103
-185 128 -24 10 -43 23 -43 28 0 5 -10 8 -22 8 -17 -1 -28 9 -41 36 -10 21
-16 42 -12 48 9 15 41 12 59 -6z m-3524 2 c0 -2 -8 -10 -17 -17 -16 -13 -17
-12 -4 4 13 16 21 21 21 13z m3717 -15 c0 -11 -5 -18 -9 -15 -4 3 -5 11 -1 19
7 21 12 19 10 -4z m-3382 -11 c10 -11 16 -20 13 -20 -3 0 -13 9 -23 20 -10 11
-16 20 -13 20 3 0 13 -9 23 -20z m638 5 c-3 -9 -8 -14 -10 -11 -3 3 -2 9 2 15
9 16 15 13 8 -4z m3121 -26 c-66 -70 -121 -125 -144 -144 l-25 -20 20 25 c22
28 167 169 174 170 3 0 -8 -14 -25 -31z m-4114 1 c0 -5 -5 -10 -11 -10 -5 0
-7 5 -4 10 3 6 8 10 11 10 2 0 4 -4 4 -10z m2837 -12 c-3 -8 -6 -5 -6 6 -1 11
2 17 5 13 3 -3 4 -12 1 -19z m963 -52 c0 -6 -11 6 -25 26 -14 20 -25 40 -25
44 0 5 11 -7 25 -26 14 -19 25 -39 25 -44z m-3644 33 c18 -19 22 -28 11 -24
-9 4 -17 10 -17 14 0 4 -7 8 -15 8 -9 0 -14 -6 -11 -14 3 -7 1 -13 -4 -13 -6
0 -10 6 -10 13 0 9 -3 8 -9 -2 -6 -9 -21 -12 -45 -9 -23 2 -35 0 -33 -7 3 -5
-1 -16 -8 -22 -10 -10 -14 -9 -19 3 -4 10 7 29 28 50 45 45 90 47 132 3z m831
-1 c-3 -8 -6 -5 -6 6 -1 11 2 17 5 13 3 -3 4 -12 1 -19z m1626 7 c-3 -9 -8
-14 -10 -11 -3 3 -2 9 2 15 9 16 15 13 8 -4z m-2395 -20 c-3 -3 -9 2 -12 12
-6 14 -5 15 5 6 7 -7 10 -15 7 -18z m3076 -12 c-5 -5 -12 -12 -16 -18 -4 -6
-8 -2 -8 8 0 9 7 17 17 17 9 0 12 -3 7 -7z m-2323 -22 c-6 -10 -7 -22 -3 -26
4 -3 0 -5 -8 -3 -8 2 -19 -7 -25 -19 -5 -13 -13 -23 -17 -23 -4 0 -6 -6 -4
-12 1 -7 1 -10 -1 -5 -3 4 -10 4 -16 0 -12 -7 25 48 57 85 24 27 30 28 17 3z
m2156 -28 c-3 -10 -5 -4 -5 12 0 17 2 24 5 18 2 -7 2 -21 0 -30z m40 15 c-3
-8 -6 -5 -6 6 -1 11 2 17 5 13 3 -3 4 -12 1 -19z m65 -20 c-6 -6 -7 0 -4 19 5
21 7 23 10 9 2 -10 0 -22 -6 -28z m653 -18 c-3 -5 3 -10 15 -10 13 0 19 4 14
12 -4 7 -3 8 5 4 16 -10 4 -26 -19 -26 -20 0 -33 13 -23 24 10 9 15 7 8 -4z
m-4134 -17 c13 -16 12 -17 -3 -4 -10 7 -18 15 -18 17 0 8 8 3 21 -13z m2977
-8 c-3 -3 -9 2 -12 12 -6 14 -5 15 5 6 7 -7 10 -15 7 -18z m-1748 11 c0 -3 -4
-8 -10 -11 -5 -3 -10 -1 -10 4 0 6 5 11 10 11 6 0 10 -2 10 -4z m-340 -12 c0
-8 -19 -13 -24 -6 -3 5 1 9 9 9 8 0 15 -2 15 -3z m55 -4 c3 -6 -1 -7 -9 -4
-18 7 -21 14 -7 14 6 0 13 -4 16 -10z m2415 -4 c0 -2 -8 -10 -17 -17 -16 -13
-17 -12 -4 4 13 16 21 21 21 13z m-2366 -24 c3 -5 -1 -9 -9 -9 -8 0 -12 4 -9
9 3 4 7 8 9 8 2 0 6 -4 9 -8z m2410 -10 c3 -5 -1 -9 -9 -9 -8 0 -12 4 -9 9 3
4 7 8 9 8 2 0 6 -4 9 -8z m-2454 -22 c-8 -5 -19 -10 -25 -10 -5 0 -3 5 5 10 8
5 20 10 25 10 6 0 3 -5 -5 -10z m214 1 c4 -5 -3 -7 -14 -4 -23 6 -26 13 -6 13
8 0 17 -4 20 -9z m1793 -38 c-3 -10 -5 -2 -5 17 0 19 2 27 5 18 2 -10 2 -26 0
-35z m-2501 9 c-17 -16 -18 -16 -5 5 7 12 15 20 18 17 3 -2 -3 -12 -13 -22z
m2294 8 c-6 -11 -13 -20 -16 -20 -2 0 0 9 6 20 6 11 13 20 16 20 2 0 0 -9 -6
-20z m617 -32 c-2 -13 -4 -5 -4 17 -1 22 1 32 4 23 2 -10 2 -28 0 -40z m-2168
-28 c11 -24 11 -24 -3 -6 -9 11 -16 24 -16 30 0 12 5 7 19 -24z m-844 -10 c-3
-5 -12 -10 -18 -10 -7 0 -6 4 3 10 19 12 23 12 15 0z m2993 -25 c-3 -3 -9 2
-12 12 -6 14 -5 15 5 6 7 -7 10 -15 7 -18z m-3041 9 c-3 -3 -12 -4 -19 -1 -8
3 -5 6 6 6 11 1 17 -2 13 -5z m947 -19 c11 -8 16 -15 10 -15 -5 0 -18 7 -28
15 -11 8 -16 15 -10 15 5 0 18 -7 28 -15z m1946 5 c0 -5 -2 -10 -4 -10 -3 0
-8 5 -11 10 -3 6 -1 10 4 10 6 0 11 -4 11 -10z m-2163 -32 c-3 -7 -5 -2 -5 12
0 14 2 19 5 13 2 -7 2 -19 0 -25z m2118 -8 c0 -13 6 -25 13 -27 6 -3 12 0 12
6 0 6 7 11 15 11 8 0 15 -9 15 -19 0 -11 5 -21 11 -23 15 -5 -16 -67 -37 -75
-15 -6 -20 -33 -5 -33 16 0 18 -47 4 -81 -7 -17 -25 -43 -40 -56 -19 -18 -23
-27 -14 -33 10 -5 7 -12 -10 -24 -28 -19 -49 -20 -72 -3 -17 11 -17 19 -2 117
9 58 17 134 19 170 3 58 6 67 31 81 36 22 59 18 60 -11z m-105 16 c0 -2 -8
-10 -17 -17 -16 -13 -17 -12 -4 4 13 16 21 21 21 13z m-2233 -48 c-3 -7 -5 -2
-5 12 0 14 2 19 5 13 2 -7 2 -19 0 -25z m1843 29 c0 -2 -10 -12 -22 -23 l-23
-19 19 23 c18 21 26 27 26 19z m-1289 -24 c13 -16 12 -17 -3 -4 -10 7 -18 15
-18 17 0 8 8 3 21 -13z m1319 13 c0 -2 -8 -10 -17 -17 -16 -13 -17 -12 -4 4
13 16 21 21 21 13z m-1640 -41 c0 -5 -5 -3 -10 5 -5 8 -10 20 -10 25 0 6 5 3
10 -5 5 -8 10 -19 10 -25z m1763 18 c-13 -2 -35 -2 -50 0 -16 2 -5 4 22 4 28
0 40 -2 28 -4z m171 1 l46 -7 0 -41 c-1 -72 -29 -249 -45 -272 -19 -29 -128
-80 -190 -90 l-49 -7 27 27 c15 15 27 34 27 43 0 9 7 24 15 33 9 10 19 51 25
97 5 44 17 112 26 152 19 79 18 78 118 65z m-266 -16 c-7 -7 -22 -20 -33 -28
-15 -10 -14 -7 4 13 14 15 29 27 33 27 5 0 3 -6 -4 -12z m-148 -48 c12 -23 12
-24 -3 -11 -10 7 -17 20 -17 29 0 18 3 16 20 -18z m55 2 c-3 -3 -11 0 -18 7
-9 10 -8 11 6 5 10 -3 15 -9 12 -12z m-1535 -42 c6 -11 7 -20 2 -20 -6 0 -12
9 -15 20 -3 11 -3 20 -1 20 2 0 8 -9 14 -20z m1569 -16 c-5 -7 -19 -14 -30
-17 -12 -3 -18 -3 -15 0 3 3 -2 12 -12 20 -15 13 -15 13 5 4 33 -16 43 -13 43
12 0 17 2 19 10 7 5 -9 5 -19 -1 -26z m-2578 -1 c13 -16 12 -17 -3 -4 -17 13
-22 21 -14 21 2 0 10 -8 17 -17z m736 2 c0 -8 -4 -12 -9 -9 -5 3 -6 10 -3 15
9 13 12 11 12 -6z m-72 -55 c-3 -5 -12 -10 -18 -10 -7 0 -6 4 3 10 19 12 23
12 15 0z m582 -37 c-3 -10 -5 -2 -5 17 0 19 2 27 5 18 2 -10 2 -26 0 -35z
m1922 -32 c26 -86 26 -87 -3 -126 -31 -41 -194 -187 -175 -158 12 20 11 25 -6
43 -11 11 -49 35 -85 55 -36 19 -59 35 -52 35 7 0 30 12 51 26 32 21 43 24 60
15 30 -17 66 -13 94 9 27 21 87 129 87 155 0 30 8 14 29 -54z m-2708 41 c-7
-2 -18 1 -23 6 -8 8 -4 9 13 5 13 -4 18 -8 10 -11z m845 -46 c2 -12 0 -16 -5
-10 -5 5 -12 25 -15 44 -6 32 -5 33 5 10 6 -14 12 -34 15 -44z m1313 -13 c-1
-43 -4 -65 -6 -48 -3 16 -10 34 -16 38 -9 6 -9 10 1 14 6 2 12 20 12 39 0 19
2 34 5 34 3 0 4 -35 4 -77z m-2456 13 c-10 -13 -20 -22 -22 -20 -4 4 29 44 36
44 2 0 -4 -11 -14 -24z m3684 -8 c-3 -8 -6 -5 -6 6 -1 11 2 17 5 13 3 -3 4
-12 1 -19z m-1610 6 c-3 -3 -12 -4 -19 -1 -8 3 -5 6 6 6 11 1 17 -2 13 -5z
m-47 -19 c-7 -8 -17 -15 -23 -15 -6 0 -2 7 9 15 25 19 30 19 14 0z m-866 -7
c-5 -7 -2 -9 9 -5 12 4 14 2 10 -10 -5 -13 -2 -15 11 -10 9 4 15 3 11 -2 -3
-5 1 -12 7 -14 8 -3 9 -6 2 -6 -17 -1 -65 39 -59 50 4 5 8 9 11 9 3 0 2 -5 -2
-12z m-1194 -12 c0 -2 -8 -10 -17 -17 -16 -13 -17 -12 -4 4 13 16 21 21 21 13z
m2025 -14 c-3 -3 -15 -6 -27 -7 -20 -2 -20 -1 -3 11 17 13 43 9 30 -4z m502
-49 c-2 -16 -4 -5 -4 22 0 28 2 40 4 28 2 -13 2 -35 0 -50z m-1367 42 c11 -13
10 -14 -4 -9 -9 3 -16 10 -16 15 0 13 6 11 20 -6z m937 -11 c-3 -3 -12 -4 -19
-1 -8 3 -5 6 6 6 11 1 17 -2 13 -5z m49 -16 l19 -23 -25 20 c-14 11 -27 21
-29 22 -2 2 0 3 6 3 5 0 18 -10 29 -22z m-843 5 c-7 -2 -21 -2 -30 0 -10 3 -4
5 12 5 17 0 24 -2 18 -5z m-1352 -40 c-12 -20 -14 -14 -5 12 4 9 9 14 11 11 3
-2 0 -13 -6 -23z m2092 7 c-3 -12 -8 -19 -11 -16 -5 6 5 36 12 36 2 0 2 -9 -1
-20z m250 13 c-7 -2 -19 -2 -25 0 -7 3 -2 5 12 5 14 0 19 -2 13 -5z m154 1
c-3 -3 -12 -4 -19 -1 -8 3 -5 6 6 6 11 1 17 -2 13 -5z m-664 -11 c-7 -2 -21
-2 -30 0 -10 3 -4 5 12 5 17 0 24 -2 18 -5z m-1223 -27 c0 -2 -8 -10 -17 -17
-16 -13 -17 -12 -4 4 13 16 21 21 21 13z m1920 -5 c0 -5 -9 -7 -20 -4 -11 3
-20 7 -20 9 0 2 9 4 20 4 11 0 20 -4 20 -9z m-92 -8 c-15 -2 -42 -2 -60 0 -18
2 -6 4 27 4 33 0 48 -2 33 -4z m-1603 -13 c-3 -5 -16 -15 -28 -21 -19 -9 -19
-8 3 10 28 23 34 26 25 11z m1659 -72 c-9 -29 -25 -76 -36 -105 l-19 -52 -147
2 c-143 2 -149 3 -216 34 -42 21 -66 38 -63 45 33 85 41 98 47 88 4 -6 9 -11
11 -9 2 1 43 -4 90 -11 64 -10 104 -10 155 -2 92 13 184 49 185 70 0 11 3 12
6 5 2 -7 -3 -37 -13 -65z m-2357 30 c-3 -7 -5 -2 -5 12 0 14 2 19 5 13 2 -7 2
-19 0 -25z m484 9 c-10 -9 -11 -8 -5 6 3 10 9 15 12 12 3 -3 0 -11 -7 -18z
m2916 17 c-3 -3 -12 -4 -19 -1 -8 3 -5 6 6 6 11 1 17 -2 13 -5z m-44 -11 c-7
-2 -19 -2 -25 0 -7 3 -2 5 12 5 14 0 19 -2 13 -5z m-2926 -35 c-3 -8 -6 -5 -6
6 -1 11 2 17 5 13 3 -3 4 -12 1 -19z m3030 16 c-3 -3 -12 -4 -19 -1 -8 3 -5 6
6 6 11 1 17 -2 13 -5z m-123 -30 c3 -8 2 -12 -4 -9 -6 3 -10 10 -10 16 0 14 7
11 14 -7z m-1716 -25 c-3 -8 -7 -3 -11 10 -4 17 -3 21 5 13 5 -5 8 -16 6 -23z
m-1437 -2 c-10 -9 -11 -8 -5 6 3 10 9 15 12 12 3 -3 0 -11 -7 -18z m2939 -12
c19 -22 8 -25 -12 -3 -10 10 -14 18 -9 18 5 0 14 -7 21 -15z m-3026 -8 c3 3 6
4 6 1 0 -3 -8 -12 -17 -19 -10 -7 -15 -9 -11 -5 4 5 0 15 -10 23 -15 13 -15
13 4 4 12 -6 24 -7 28 -4z m2948 -9 c-7 -7 -12 -8 -12 -2 0 14 12 26 19 19 2
-3 -1 -11 -7 -17z m327 -8 c11 -24 11 -24 -3 -6 -9 11 -16 24 -16 30 0 12 5 7
19 -24z m-3216 5 c-3 -9 -8 -14 -10 -11 -3 3 -2 9 2 15 9 16 15 13 8 -4z
m2910 -60 c12 -8 16 -15 9 -15 -16 0 -52 37 -52 53 0 7 5 5 11 -5 5 -10 19
-24 32 -33z m60 25 c-3 -12 -8 -19 -11 -16 -5 6 5 36 12 36 2 0 2 -9 -1 -20z
m285 -45 c-3 -3 -9 2 -12 12 -6 14 -5 15 5 6 7 -7 10 -15 7 -18z m-3355 8 c-7
-2 -21 -2 -30 0 -10 3 -4 5 12 5 17 0 24 -2 18 -5z m1143 -30 c15 -20 23 -33
16 -29 -13 8 -56 66 -49 66 3 0 17 -17 33 -37z m764 1 c62 -22 93 -27 180 -27
66 -1 113 3 127 11 19 10 22 9 28 -8 8 -26 -8 -54 -49 -85 -43 -32 -79 -32
-103 0 l-18 25 -52 -27 c-45 -24 -55 -26 -73 -15 -24 15 -33 16 -25 2 3 -5 1
-10 -4 -10 -15 0 -14 43 1 58 21 21 -7 35 -66 36 -64 1 -81 14 -72 51 8 31 9
31 126 -11z m-1903 -6 c-3 -8 -6 -5 -6 6 -1 11 2 17 5 13 3 -3 4 -12 1 -19z
m3378 -8 c16 -17 16 -20 3 -15 -9 4 -19 13 -22 21 -7 19 -2 18 19 -6z m-2150
-10 c10 -11 16 -20 13 -20 -3 0 -13 9 -23 20 -10 11 -16 20 -13 20 3 0 13 -9
23 -20z m-705 0 c0 -5 -7 -7 -15 -4 -8 4 -15 8 -15 10 0 2 7 4 15 4 8 0 15 -4
15 -10z m1252 -53 c-2 -4 -12 3 -23 17 -26 33 -24 40 4 13 13 -12 22 -26 19
-30z m-1742 29 c0 -2 -8 -10 -17 -17 -16 -13 -17 -12 -4 4 13 16 21 21 21 13z
m1657 -22 c-3 -3 -12 -4 -19 -1 -8 3 -5 6 6 6 11 1 17 -2 13 -5z m-1173 -19
c-4 -8 -11 -12 -16 -9 -6 4 -5 10 3 15 19 12 19 11 13 -6z m-233 -18 c-10 -9
-11 -8 -5 6 3 10 9 15 12 12 3 -3 0 -11 -7 -18z m1276 -24 c-3 -10 -5 -2 -5
17 0 19 2 27 5 18 2 -10 2 -26 0 -35z m687 -104 c-16 -17 -46 -45 -67 -61 -45
-36 -54 -34 -153 39 -74 54 -76 78 -10 110 41 20 42 20 65 2 38 -31 82 -24
132 20 l44 39 9 -59 c9 -58 8 -61 -20 -90z m-2024 137 c0 -2 -8 -10 -17 -17
-16 -13 -17 -12 -4 4 13 16 21 21 21 13z m1059 -36 c29 -40 23 -38 -18 5 -18
19 -26 33 -18 30 8 -4 24 -19 36 -35z m-632 24 c-3 -3 -12 -4 -19 -1 -8 3 -5
6 6 6 11 1 17 -2 13 -5z m84 -31 c13 -16 12 -17 -3 -4 -10 7 -18 15 -18 17 0
8 8 3 21 -13z m-387 -9 c3 -8 2 -12 -4 -9 -6 3 -10 10 -10 16 0 14 7 11 14 -7z
m1230 -22 c3 -5 -1 -9 -9 -9 -8 0 -12 4 -9 9 3 4 7 8 9 8 2 0 6 -4 9 -8z
m-1027 -39 c-3 -10 -5 -4 -5 12 0 17 2 24 5 18 2 -7 2 -21 0 -30z m1408 27 c3
-6 -1 -7 -9 -4 -18 7 -21 14 -7 14 6 0 13 -4 16 -10z m-965 -24 c0 -2 -7 -7
-16 -10 -8 -3 -12 -2 -9 4 6 10 25 14 25 6z m620 -11 c-7 -8 -17 -15 -23 -15
-6 0 -2 7 9 15 25 19 30 19 14 0z m-283 -57 c-2 -13 -4 -5 -4 17 -1 22 1 32 4
23 2 -10 2 -28 0 -40z m-257 2 c6 -11 8 -20 6 -20 -3 0 -10 9 -16 20 -6 11 -8
20 -6 20 3 0 10 -9 16 -20z m707 -12 c19 -13 33 -32 33 -43 0 -11 21 -56 46
-100 81 -140 78 -128 84 -285 5 -131 3 -149 -15 -185 -25 -49 -85 -82 -171
-93 -42 -5 -59 -11 -59 -22 0 -11 11 -15 45 -13 25 0 34 -1 20 -4 -14 -3 -27
-8 -30 -13 -3 -4 -41 10 -85 31 -73 34 -81 36 -92 22 -20 -25 -16 -51 12 -78
13 -14 20 -25 14 -25 -13 0 -92 41 -165 84 -62 38 -84 44 -84 24 0 -22 213
-139 277 -152 21 -5 30 -12 27 -21 -4 -8 7 -20 25 -30 49 -25 37 -35 -43 -35
-82 0 -106 6 -106 25 0 21 -19 28 -36 15 -18 -16 -81 -8 -131 16 -34 17 -38
23 -38 59 0 37 -2 39 -39 47 -58 12 -106 52 -106 88 0 16 7 33 16 38 14 8 9
16 -29 54 -44 44 -74 106 -64 132 3 8 29 17 58 21 45 6 55 5 66 -11 8 -11 18
-19 23 -19 5 0 29 -42 55 -92 26 -53 52 -93 61 -93 21 0 18 11 -20 78 -41 73
-59 126 -52 150 3 10 26 37 50 61 41 40 44 42 51 22 3 -12 13 -21 20 -21 10 0
14 16 14 63 0 114 28 199 79 235 27 20 214 90 241 91 8 1 30 -9 48 -21z m1543
2 c6 -12 10 -35 8 -53 -2 -26 -7 -32 -25 -31 -12 0 -19 -4 -16 -9 8 -13 -40 3
-49 17 -12 18 -9 50 8 74 19 28 60 29 74 2z m-2945 -28 c-3 -3 -11 0 -18 7 -9
10 -8 11 6 5 10 -3 15 -9 12 -12z m1087 -27 c-29 -25 -43 -25 -22 0 7 8 9 15
4 15 -5 0 -3 4 5 9 8 5 20 7 27 4 9 -3 5 -12 -14 -28z m383 -5 c3 -6 -1 -7 -9
-4 -18 7 -21 14 -7 14 6 0 13 -4 16 -10z m1795 -25 c0 -2 -6 -5 -13 -8 -8 -3
-14 1 -14 8 0 7 6 11 14 8 7 -3 13 -6 13 -8z m-1759 -12 c13 -16 12 -17 -3 -4
-10 7 -18 15 -18 17 0 8 8 3 21 -13z m1715 9 c-3 -5 -25 -21 -50 -37 -26 -16
-46 -33 -46 -38 0 -4 -4 -6 -9 -2 -5 3 -12 1 -16 -5 -3 -5 -11 -10 -18 -10 -9
0 131 99 141 100 2 0 1 -4 -2 -8z m54 -22 c0 -5 -2 -10 -4 -10 -3 0 -8 5 -11
10 -3 6 -1 10 4 10 6 0 11 -4 11 -10z m-1735 -28 c-3 -3 -11 0 -18 7 -9 10 -8
11 6 5 10 -3 15 -9 12 -12z m-518 -14 c-3 -8 -6 -5 -6 6 -1 11 2 17 5 13 3 -3
4 -12 1 -19z m2282 -4 c16 -37 9 -39 -11 -3 -9 16 -14 29 -9 29 4 0 13 -12 20
-26z m-1274 -8 c9 -14 15 -37 12 -53 -4 -26 -4 -26 -6 5 0 20 -5 31 -11 27 -6
-4 -10 -3 -9 2 1 4 1 15 0 23 -1 13 -2 13 -11 0 -7 -11 -10 -12 -10 -2 0 9 -7
11 -21 7 -15 -5 -19 -4 -15 4 13 20 55 12 71 -13z m1425 16 c0 -5 -7 -17 -15
-28 -14 -18 -14 -17 -4 9 12 27 19 34 19 19z m-1817 -87 l31 -40 -42 40 c-23
22 -50 51 -59 65 l-16 25 28 -25 c15 -14 41 -43 58 -65z m-946 25 c-10 -15
-17 -18 -22 -10 -4 6 1 19 11 29 24 22 31 9 11 -19z m2324 -20 c-18 -17 -36
-30 -40 -30 -7 1 61 60 69 60 3 0 -10 -14 -29 -30z m314 20 c3 -5 -14 -19 -37
-31 -267 -136 -640 -451 -823 -694 -33 -43 -66 -86 -73 -95 -21 -24 -4 8 24
47 13 17 24 35 24 38 0 7 60 96 71 105 3 3 23 28 43 55 49 65 126 144 217 225
41 36 94 86 119 111 25 25 65 60 90 76 61 41 217 133 225 133 4 0 21 6 38 14
61 27 73 30 82 16z m-1355 -45 c5 3 11 1 14 -4 4 -5 0 -8 -6 -7 -21 3 -38 16
-38 29 0 7 5 4 11 -6 6 -9 14 -15 19 -12z m1380 -30 c0 -6 -46 -43 -103 -82
-136 -93 -364 -301 -618 -561 -201 -207 -206 -212 -224 -192 -17 18 -17 21 5
57 83 142 352 426 523 554 107 80 255 177 337 221 62 33 79 34 80 3z m-393 10
c0 -8 -4 -12 -9 -9 -5 3 -6 10 -3 15 9 13 12 11 12 -6z m548 -4 c3 -6 -12 -11
-32 -13 -28 -2 -39 -8 -41 -22 -4 -16 0 -18 30 -12 34 6 436 21 893 32 194 5
288 3 420 -10 213 -20 435 -69 435 -94 0 -13 -92 -131 -126 -164 -16 -15 -49
-38 -73 -50 -46 -25 -71 -52 -58 -65 4 -4 24 1 43 12 32 17 38 18 62 4 15 -8
32 -26 39 -39 48 -94 -35 -345 -160 -485 l-54 -59 -28 22 c-21 17 -31 20 -42
11 -11 -10 -10 -14 8 -27 21 -14 21 -16 4 -28 -23 -17 -10 -36 19 -28 21 5 24
1 30 -35 12 -75 -22 -167 -88 -238 -36 -39 -89 -73 -113 -73 -29 0 -29 -7 -2
-36 20 -21 21 -27 10 -71 -7 -26 -23 -66 -36 -89 -61 -104 -244 -194 -291
-143 -15 17 -44 26 -44 14 0 -2 9 -21 21 -42 19 -34 20 -43 10 -90 -14 -60
-67 -135 -114 -160 -18 -9 -52 -17 -77 -18 -54 -3 -64 -28 -12 -33 17 -2 32
-8 32 -13 0 -12 -109 -1 -126 12 -8 6 -20 -9 -40 -48 -43 -90 -160 -200 -264
-251 -118 -58 -280 -78 -280 -35 0 41 -94 -34 -119 -95 -33 -80 -178 -179
-275 -189 -92 -10 -206 44 -228 109 -8 23 -13 26 -24 17 -8 -6 -14 -17 -14
-23 0 -20 -72 -84 -115 -102 -79 -33 -268 -17 -374 33 -20 10 -62 43 -95 74
l-58 57 18 32 c29 50 185 222 206 228 14 3 18 10 14 26 -14 47 -18 428 -7 591
21 312 69 656 92 671 5 3 9 14 9 26 0 17 -4 19 -26 14 -25 -7 -25 -6 -10 16 9
13 115 125 237 250 239 247 453 443 471 432 6 -4 8 -3 5 3 -8 13 173 142 200
143 6 0 20 14 30 30 15 26 23 30 60 30 23 0 44 -4 48 -9z m-1873 -23 c-7 -7
-12 -8 -12 -2 0 14 12 26 19 19 2 -3 -1 -11 -7 -17z m78 -19 c0 -11 -11 -11
-29 0 -7 5 -10 14 -6 20 5 9 10 9 21 0 8 -6 14 -15 14 -20z m1165 -14 c-17
-13 -34 -24 -39 -25 -5 0 4 10 20 22 16 13 31 26 33 31 1 5 6 6 9 2 3 -3 -7
-17 -23 -30z m-1255 -25 c-5 -22 -8 -27 -9 -13 -1 21 9 56 14 51 2 -2 0 -19
-5 -38z m1147 -67 c-34 -31 -79 -75 -100 -97 -21 -23 -33 -31 -28 -20 11 22
170 174 183 174 4 0 -20 -26 -55 -57z m-977 16 c15 -28 5 -23 -15 7 -9 15 -12
23 -6 20 6 -4 16 -16 21 -27z m3470 -3 c0 -2 -8 -10 -17 -17 -16 -13 -17 -12
-4 4 13 16 21 21 21 13z m-3416 -42 c5 -14 4 -15 -9 -4 -17 14 -19 20 -6 20 5
0 12 -7 15 -16z m447 -34 c25 -14 25 -70 0 -101 -17 -21 -23 -22 -57 -14 -54
14 -57 44 -11 90 39 39 40 39 68 25z m-387 -86 c3 -8 2 -12 -4 -9 -6 3 -10 10
-10 16 0 14 7 11 14 -7z m704 -14 c-7 -10 -14 -17 -17 -15 -4 4 18 35 25 35 2
0 -1 -9 -8 -20z m-59 -72 c-18 -24 -38 -46 -43 -49 -4 -4 -5 -12 -1 -19 5 -8
4 -11 -2 -7 -9 6 -91 -81 -135 -142 -7 -9 -19 -21 -27 -26 -7 -4 34 49 92 118
58 69 114 137 124 151 10 13 20 22 22 20 2 -1 -12 -22 -30 -46z m3215 -84 c3
-8 2 -12 -4 -9 -6 3 -10 10 -10 16 0 14 7 11 14 -7z m-4983 -21 c12 -16 12
-17 -2 -5 -21 16 -48 6 -46 -18 1 -11 3 -17 5 -15 5 5 27 -13 50 -39 66 -76
121 -130 145 -143 28 -14 30 -13 59 16 17 17 40 31 52 31 19 -1 18 -2 -6 -13
-15 -7 -45 -29 -66 -49 -27 -25 -43 -33 -50 -26 -6 6 -12 6 -17 -3 -5 -8 -4
-10 3 -5 32 20 4 -18 -66 -87 l-79 -78 -109 54 c-60 29 -125 60 -144 67 -19 7
-37 15 -39 16 -2 2 28 38 66 81 38 43 83 94 99 112 106 126 120 136 145 104z
m550 -36 c-10 -9 -11 -8 -5 6 3 10 9 15 12 12 3 -3 0 -11 -7 -18z m-456 -7
c13 -6 15 -9 5 -9 -8 0 -22 4 -30 9 -18 12 -2 12 25 0z m-277 -56 c-14 -14
-15 -14 -10 11 3 19 8 23 15 16 8 -8 7 -16 -5 -27z m717 -5 c11 -17 0 -20 -21
-4 -17 13 -17 14 -2 15 9 0 20 -5 23 -11z m-365 -44 c14 -8 21 -14 15 -14 -5
0 -21 6 -35 14 -14 8 -20 14 -15 14 6 0 21 -6 35 -14z m4777 -27 c-3 -7 -5 -2
-5 12 0 14 2 19 5 13 2 -7 2 -19 0 -25z m-3417 -8 c-6 -11 -13 -20 -16 -20 -2
0 0 9 6 20 6 11 13 20 16 20 2 0 0 -9 -6 -20z m3393 -75 c-3 -9 -8 -14 -10
-11 -3 3 -2 9 2 15 9 16 15 13 8 -4z m-3333 -33 c12 11 12 11 1 -4 -15 -20
-26 -16 -42 15 -10 22 -10 22 8 -1 15 -19 21 -20 33 -10z m3301 -39 c-12 -20
-14 -14 -5 12 4 9 9 14 11 11 3 -2 0 -13 -6 -23z m-18 -38 c-3 -9 -8 -14 -10
-11 -3 3 -2 9 2 15 9 16 15 13 8 -4z m-42 -73 c-5 -10 -18 -25 -27 -33 -11 -9
-9 -2 6 19 26 35 36 42 21 14z m-57 -77 c-9 -14 -18 -25 -21 -25 -5 0 5 18 20
38 17 22 18 13 1 -13z m-64 -81 c0 -2 -7 -4 -15 -4 -8 0 -15 4 -15 10 0 5 7 7
15 4 8 -4 15 -8 15 -10z m-4359 -121 c13 -16 12 -17 -3 -4 -17 13 -22 21 -14
21 2 0 10 -8 17 -17z m4335 -28 c18 -13 18 -14 -5 -8 -17 4 -22 3 -17 -5 4 -7
3 -12 -2 -12 -11 0 -44 -69 -38 -79 3 -4 -1 -8 -9 -8 -8 0 -15 1 -15 1 0 1 11
23 25 50 14 27 25 55 25 63 0 17 11 17 36 -2z m189 -95 c88 -44 164 -81 169
-83 11 -4 -127 -273 -140 -270 -5 2 -65 25 -134 52 -69 28 -134 53 -144 56
-18 5 -17 8 11 25 45 27 108 119 148 214 16 37 15 38 -2 32 -9 -4 -14 -4 -10
0 4 5 -9 18 -30 31 -68 41 -30 25 132 -57z m-4415 5 c14 -19 14 -19 -2 -6 -10
7 -18 18 -18 24 0 6 1 8 3 6 1 -2 9 -13 17 -24z m1137 -72 c-3 -10 -5 -2 -5
17 0 19 2 27 5 18 2 -10 2 -26 0 -35z m2976 3 c-10 -14 -24 -28 -32 -31 -7 -3
0 10 15 28 33 39 45 41 17 3z m637 -60 l49 -35 40 20 c44 21 86 25 96 9 3 -5
-1 -10 -9 -10 -22 0 -20 -17 4 -30 17 -9 20 -21 20 -75 0 -35 -4 -66 -9 -69
-5 -3 -6 -25 -4 -49 5 -40 2 -45 -33 -78 -47 -44 -66 -73 -58 -94 3 -8 2 -15
-4 -15 -24 0 -44 14 -53 36 -10 27 -34 32 -43 9 -11 -29 -153 -14 -254 26 -45
18 -51 24 -40 37 7 8 13 20 13 26 1 20 146 301 163 314 9 7 16 17 15 22 -5 17
59 -9 107 -44z m-709 3 c-39 -32 -37 -57 3 -74 19 -8 43 -12 53 -9 16 5 17 5
1 -5 -13 -9 -27 -7 -57 5 -38 15 -41 19 -41 54 0 32 3 37 19 33 10 -3 22 0 25
6 4 6 10 11 14 11 4 -1 -4 -10 -17 -21z m-3892 -83 c-3 -3 -11 5 -18 17 -13
21 -12 21 5 5 10 -10 16 -20 13 -22z m3976 -16 c-3 -5 -12 -10 -18 -10 -7 0
-6 4 3 10 19 12 23 12 15 0z m-152 -45 c-3 -9 -8 -14 -10 -11 -3 3 -2 9 2 15
9 16 15 13 8 -4z m-29 -69 c-3 -9 -10 -16 -15 -16 -5 0 -4 9 3 20 14 22 21 20
12 -4z m-48 -76 c-36 -54 -42 -51 -8 4 15 24 29 42 31 40 2 -2 -8 -22 -23 -44z
m1610 -2 c4 -7 3 -8 -4 -4 -8 5 -12 -2 -13 -21 -1 -18 -3 -22 -6 -10 -5 18 2
47 11 47 3 0 8 -5 12 -12z m-5197 -83 c0 -5 -6 1 -14 15 -8 14 -14 30 -14 35
0 6 6 -1 14 -15 8 -14 14 -29 14 -35z m3541 21 c0 -2 -8 -10 -17 -17 -16 -13
-17 -12 -4 4 13 16 21 21 21 13z m-40 -39 c0 -8 -38 -47 -45 -47 -5 0 2 11 15
25 22 24 30 29 30 22z m-4740 -49 c0 -7 26 -28 56 -47 150 -90 351 -274 423
-386 69 -106 76 -145 76 -430 l0 -250 -39 -155 c-55 -217 -103 -325 -199 -445
-58 -72 -94 -102 -167 -140 -93 -47 -154 -63 -294 -75 -240 -22 -479 15 -693
108 -153 66 -524 293 -523 319 1 5 11 21 24 36 20 25 26 27 50 17 15 -5 49
-10 76 -10 41 0 52 4 74 30 l25 31 51 -50 c28 -27 60 -53 72 -57 26 -8 76 -42
98 -66 28 -31 261 -95 430 -118 107 -15 276 -14 349 1 130 26 247 99 332 206
160 201 241 384 256 581 12 164 -57 473 -121 542 -18 19 -42 51 -54 71 -30 49
-122 135 -220 203 -77 54 -117 96 -92 96 5 0 10 -6 10 -12z m6397 -10 c-3 -8
-6 -5 -6 6 -1 11 2 17 5 13 3 -3 4 -12 1 -19z m-1787 -83 c0 -1 -9 -5 -19 -8
-13 -3 -18 -1 -14 9 4 10 33 10 33 -1z m1338 -10 c-3 -3 -9 2 -12 12 -6 14 -5
15 5 6 7 -7 10 -15 7 -18z m421 -14 c-6 -18 -13 -30 -15 -28 -2 2 1 18 7 36 6
18 13 30 15 28 2 -2 -1 -18 -7 -36z m-1799 -4 c0 -2 -10 -12 -22 -23 l-23 -19
19 23 c18 21 26 27 26 19z m1430 -32 c19 -19 32 -35 29 -35 -3 0 -20 16 -39
35 -19 19 -32 35 -29 35 3 0 20 -16 39 -35z m-7409 -52 c18 -15 41 -47 51 -71
18 -40 46 -54 41 -21 -2 9 7 15 23 17 48 4 60 -12 78 -100 23 -116 21 -136
-19 -202 -41 -69 -42 -76 -13 -76 22 0 22 0 -4 -25 -24 -22 -32 -24 -90 -19
-35 3 -76 0 -91 -5 -18 -7 -27 -7 -27 -1 0 6 -10 14 -23 19 -13 5 -41 33 -64
62 -97 127 -139 263 -94 308 11 11 30 21 40 21 25 0 36 17 22 34 -6 7 -8 16
-4 19 13 14 22 6 28 -23 4 -16 11 -33 17 -36 15 -10 28 17 17 37 -14 27 -11
47 11 69 28 28 62 25 101 -7z m7741 -5 c-8 -8 -9 -4 -5 13 4 13 8 18 11 10 2
-7 -1 -18 -6 -23z m-1832 8 c0 -2 -8 -10 -17 -17 -16 -13 -17 -12 -4 4 13 16
21 21 21 13z m-3173 -38 c-3 -7 -5 -2 -5 12 0 14 2 19 5 13 2 -7 2 -19 0 -25z
m3119 -26 c-17 -16 -18 -16 -5 5 7 12 15 20 18 17 3 -2 -3 -12 -13 -22z
m-3109 -24 c-3 -7 -5 -2 -5 12 0 14 2 19 5 13 2 -7 2 -19 0 -25z m3083 -1 c0
-2 -15 -14 -32 -27 l-33 -23 24 26 c21 23 41 35 41 24z m-80 -61 c0 -2 -8 -10
-17 -17 -16 -13 -17 -12 -4 4 13 16 21 21 21 13z m-50 -51 c-7 -8 -18 -15 -24
-15 -6 0 -2 7 8 15 25 19 32 19 16 0z m-2933 -77 c-2 -13 -4 -3 -4 22 0 25 2
35 4 23 2 -13 2 -33 0 -45z m2883 44 c0 -4 -15 -16 -32 -26 l-33 -18 30 26
c34 28 35 29 35 18z m-6693 -154 c-3 -7 -5 -2 -5 12 0 14 2 19 5 13 2 -7 2
-19 0 -25z m6533 28 c0 -2 -8 -10 -17 -17 -16 -13 -17 -12 -4 4 13 16 21 21
21 13z m-2723 -83 c-2 -16 -4 -5 -4 22 0 28 2 40 4 28 2 -13 2 -35 0 -50z
m2643 24 c0 -2 -10 -12 -22 -23 l-23 -19 19 23 c18 21 26 27 26 19z m-40 -50
c0 -2 -19 -18 -42 -36 l-43 -33 37 36 c34 33 48 42 48 33z m-2613 -64 c-3 -10
-5 -4 -5 12 0 17 2 24 5 18 2 -7 2 -21 0 -30z m-2651 -19 c19 -9 34 -21 34
-26 0 -6 8 -8 18 -6 17 5 18 0 14 -51 -2 -31 -7 -58 -9 -61 -3 -3 -37 -5 -77
-5 -126 0 -203 57 -162 120 34 52 109 64 182 29z m5164 2 c0 -2 -8 -10 -17
-17 -16 -13 -17 -12 -4 4 13 16 21 21 21 13z m-5377 -117 c5 -17 11 -20 31
-17 17 4 26 1 26 -8 0 -7 7 -17 17 -22 14 -9 14 -11 -5 -21 -51 -27 -72 -135
-38 -198 20 -39 55 -44 85 -12 23 24 54 107 45 120 -11 18 -24 8 -35 -29 -6
-21 -20 -49 -30 -63 -19 -23 -20 -24 -34 -5 -9 11 -15 41 -15 69 0 43 4 53 38
86 21 20 45 35 54 33 10 -2 48 -45 85 -95 52 -71 71 -107 85 -160 10 -38 30
-91 43 -118 31 -60 31 -83 3 -103 -42 -30 -141 -13 -151 25 -9 35 -42 19 -40
-17 7 -90 -134 -97 -283 -13 -28 16 -58 37 -68 47 -16 19 -16 20 1 26 15 6 14
9 -9 29 -32 26 -49 105 -37 170 13 72 67 163 128 218 30 27 61 47 68 45 7 -3
12 -2 12 2 -6 35 16 44 24 11z m2854 -256 c-1 -54 -3 -12 -3 92 0 105 2 149 3
98 2 -51 2 -136 0 -190z m2343 257 c-8 -5 -19 -10 -25 -10 -5 0 -3 5 5 10 8 5
20 10 25 10 6 0 3 -5 -5 -10z m-75 -32 c-11 -6 -25 -19 -32 -27 -8 -10 -12
-11 -13 -4 0 13 38 43 55 43 5 0 1 -6 -10 -12z m-55 -51 c0 -2 -10 -12 -22
-23 l-23 -19 19 23 c18 21 26 27 26 19z m-180 -152 c-7 -8 -17 -15 -23 -15 -6
0 -2 7 9 15 25 19 30 19 14 0z m-5823 -27 c-3 -7 -5 -2 -5 12 0 14 2 19 5 13
2 -7 2 -19 0 -25z m5763 -32 c0 -14 -4 -28 -10 -31 -5 -3 -7 0 -4 8 9 24 -13
29 -47 12 -17 -9 -33 -14 -37 -11 -7 8 -4 10 43 29 53 21 55 21 55 -7z m-5753
-28 c-3 -8 -6 -5 -6 6 -1 11 2 17 5 13 3 -3 4 -12 1 -19z m5643 3 c0 -5 -11
-11 -25 -13 -14 -3 -25 -2 -25 3 0 4 10 10 23 12 12 2 23 5 25 6 1 0 2 -3 2
-8z m157 -23 c-3 -7 -5 -2 -5 12 0 14 2 19 5 13 2 -7 2 -19 0 -25z m-222 2
c-3 -5 -11 -10 -17 -10 -6 0 -17 -8 -24 -17 -7 -10 -16 -18 -21 -18 -14 0 -49
-29 -56 -45 -4 -12 -6 -12 -6 2 -1 10 17 29 39 44 22 15 40 30 40 35 0 4 8 10
18 12 29 8 33 7 27 -3z m240 -307 l6 -42 -48 -6 c-65 -9 -162 -36 -169 -46
-13 -22 -33 -5 -52 44 -12 28 -37 91 -57 139 -38 95 -43 117 -21 95 13 -13 23
-13 76 0 34 7 93 28 131 45 63 28 69 33 70 62 1 27 46 -179 64 -291z m-5808
265 c-3 -8 -6 -5 -6 6 -1 11 2 17 5 13 3 -3 4 -12 1 -19z m3760 -20 c-3 -7 -5
-2 -5 12 0 14 2 19 5 13 2 -7 2 -19 0 -25z m1653 -38 c0 -5 -2 -10 -4 -10 -3
0 -8 5 -11 10 -3 6 -1 10 4 10 6 0 11 -4 11 -10z m-93 -26 c-3 -3 -12 -4 -19
-1 -8 3 -5 6 6 6 11 1 17 -2 13 -5z m-90 -20 c-3 -3 -12 -4 -19 -1 -8 3 -5 6
6 6 11 1 17 -2 13 -5z m-1500 -116 c-3 -7 -5 -2 -5 12 0 14 2 19 5 13 2 -7 2
-19 0 -25z m-3670 0 c-3 -8 -6 -5 -6 6 -1 11 2 17 5 13 3 -3 4 -12 1 -19z m20
-60 c-3 -8 -6 -5 -6 6 -1 11 2 17 5 13 3 -3 4 -12 1 -19z m3630 -10 c-3 -8 -6
-5 -6 6 -1 11 2 17 5 13 3 -3 4 -12 1 -19z m-10 -40 c-3 -8 -6 -5 -6 6 -1 11
2 17 5 13 3 -3 4 -12 1 -19z m2129 -33 c8 -31 30 -27 27 4 -3 22 18 28 51 15
18 -7 20 -62 7 -176 -4 -37 -4 -69 -1 -70 4 -2 10 -20 13 -41 8 -48 -17 -77
-67 -77 -25 0 -38 -6 -51 -26 -13 -21 -22 -25 -49 -21 -17 2 -41 10 -53 17
-19 12 -24 10 -53 -19 -18 -17 -40 -31 -48 -29 -20 4 -36 59 -20 69 6 4 8 14
5 23 -4 9 -2 16 3 16 6 0 10 7 10 15 0 8 -7 15 -16 15 -17 0 -38 45 -60 131
-12 48 -13 63 -3 75 30 37 179 89 291 103 4 1 10 -10 14 -24z m-5677 -75 c11
-24 11 -24 -3 -6 -9 11 -16 24 -16 30 0 12 5 7 19 -24z m3452 -157 c-12 -20
-14 -14 -5 12 4 9 9 14 11 11 3 -2 0 -13 -6 -23z m2366 -65 c-3 -8 -6 -5 -6 6
-1 11 2 17 5 13 3 -3 4 -12 1 -19z m-2436 -77 c-6 -10 -7 -21 -4 -25 3 -3 1
-6 -5 -6 -7 0 -12 3 -12 6 0 9 20 44 26 44 2 0 0 -8 -5 -19z m-3140 -108 c13
-16 12 -17 -3 -4 -10 7 -18 15 -18 17 0 8 8 3 21 -13z m60 -80 c13 -16 12 -17
-3 -4 -10 7 -18 15 -18 17 0 8 8 3 21 -13z m2959 -17 c0 -2 -8 -10 -17 -17
-16 -13 -17 -12 -4 4 13 16 21 21 21 13z m-2919 -33 c13 -16 12 -17 -3 -4 -10
7 -18 15 -18 17 0 8 8 3 21 -13z m75 -85 l29 -33 -32 29 c-31 28 -38 36 -30
36 2 0 16 -15 33 -32z m2784 28 c0 -2 -8 -10 -17 -17 -16 -13 -17 -12 -4 4 13
16 21 21 21 13z m2760 -30 c0 -2 -8 -10 -17 -17 -16 -13 -17 -12 -4 4 13 16
21 21 21 13z m-52 -56 c-9 -6 -31 -27 -47 -47 -17 -21 -31 -34 -31 -30 0 12
72 87 84 87 6 0 3 -5 -6 -10z m-2808 -24 c0 -2 -8 -10 -17 -17 -16 -13 -17
-12 -4 4 13 16 21 21 21 13z m-2539 -53 c13 -16 12 -17 -3 -4 -10 7 -18 15
-18 17 0 8 8 3 21 -13z m5244 -13 c-3 -5 -16 -15 -28 -21 -19 -9 -19 -8 3 10
28 23 34 26 25 11z m-5174 -47 c13 -16 12 -17 -3 -4 -17 13 -22 21 -14 21 2 0
10 -8 17 -17z m40 -30 c13 -16 12 -17 -3 -4 -17 13 -22 21 -14 21 2 0 10 -8
17 -17z m2284 7 c-3 -5 -20 -19 -38 -30 -32 -22 -32 -22 3 9 37 32 45 37 35
21z m-2170 -80 c3 -6 -1 -7 -9 -4 -18 7 -21 14 -7 14 6 0 13 -4 16 -10z m185
-95 c14 -8 21 -14 15 -14 -5 0 -21 6 -35 14 -14 8 -20 14 -15 14 6 0 21 -6 35
-14z m1705 -5 c-3 -5 -12 -10 -18 -10 -7 0 -6 4 3 10 19 12 23 12 15 0z m-140
-60 c-3 -5 -12 -10 -18 -10 -7 0 -6 4 3 10 19 12 23 12 15 0z m-1077 -87 c-10
-2 -26 -2 -35 0 -10 3 -2 5 17 5 19 0 27 -2 18 -5z m755 0 c-7 -2 -19 -2 -25
0 -7 3 -2 5 12 5 14 0 19 -2 13 -5z m-610 -20 c-7 -2 -19 -2 -25 0 -7 3 -2 5
12 5 14 0 19 -2 13 -5z m454 1 c-3 -3 -12 -4 -19 -1 -8 3 -5 6 6 6 11 1 17 -2
13 -5z m-164 -11 c-7 -2 -19 -2 -25 0 -7 3 -2 5 12 5 14 0 19 -2 13 -5z"/>
<path d="M3976 7813 c-23 -27 -27 -36 -16 -43 13 -8 61 18 76 41 6 10 -13 40
-25 38 -3 0 -19 -16 -35 -36z"/>
<path d="M4230 7350 c0 -30 -41 -67 -89 -80 -29 -8 -41 -16 -41 -29 0 -33 -34
-64 -69 -63 -25 0 -32 -3 -29 -16 4 -23 53 -28 82 -8 13 8 31 31 40 50 9 20
23 36 31 36 21 0 84 40 95 60 15 29 12 70 -5 70 -8 0 -15 -9 -15 -20z"/>
<path d="M3598 7340 c-14 -10 -29 -16 -33 -12 -5 4 -5 2 -2 -4 3 -6 -12 -37
-34 -69 -21 -32 -39 -62 -39 -67 0 -5 -3 -7 -7 -5 -5 3 -9 -5 -10 -16 -3 -50
-16 -113 -26 -127 -9 -12 -9 -13 3 -2 8 6 22 12 32 12 14 0 18 8 18 38 1 57
68 190 91 177 5 -4 6 0 3 8 -3 9 8 25 30 42 34 26 39 45 12 45 -7 0 -25 -9
-38 -20z"/>
<path d="M3783 7103 c-12 -2 -27 -11 -33 -19 -7 -8 -18 -14 -24 -14 -20 0 -70
-54 -94 -100 -15 -31 -22 -63 -22 -100 0 -123 39 -180 137 -199 57 -11 67 -10
112 10 29 12 70 42 95 69 40 43 45 53 51 113 7 62 5 68 -29 134 -20 37 -47 75
-60 85 -24 17 -96 29 -133 21z"/>
<path d="M6514 7388 l-19 -23 23 19 c21 18 27 26 19 26 -2 0 -12 -10 -23 -22z"/>
<path d="M3984 5409 c-16 -26 118 -121 146 -104 16 10 3 23 -45 44 -24 10 -51
31 -60 45 -19 28 -30 32 -41 15z"/>
<path d="M6393 5563 c-37 -5 -56 -23 -43 -43 7 -12 11 -12 26 1 13 11 45 14
138 12 182 -3 385 -42 693 -134 147 -43 153 -45 153 -26 0 17 -316 108 -515
148 -187 39 -355 54 -452 42z"/>
<path d="M6357 5354 c-4 -4 -4 -17 -1 -29 9 -38 -26 -214 -71 -350 -42 -129
-127 -315 -186 -407 -20 -31 -29 -54 -24 -66 6 -16 8 -16 21 3 30 41 103 183
148 289 83 193 157 479 142 541 -6 25 -16 31 -29 19z"/>
<path d="M6045 4878 c-65 -43 -255 -129 -329 -148 -97 -24 -166 -27 -166 -5 0
19 -20 19 -45 1 -11 -8 -16 -19 -12 -30 10 -25 155 -22 243 5 132 41 364 159
364 186 0 18 -20 15 -55 -9z"/>
<path d="M5364 4546 c-16 -42 27 -348 101 -721 52 -261 97 -401 133 -413 14
-4 17 34 3 43 -5 3 -21 40 -35 83 -67 202 -154 662 -172 902 -7 103 -17 139
-30 106z"/>
<path d="M1729 3280 c-20 -13 -17 -141 5 -175 18 -28 66 -35 66 -10 0 14 -6
17 -27 14 -11 -1 -22 32 -22 69 -1 17 4 32 10 32 5 0 7 -5 3 -12 -5 -7 -3 -8
5 -3 9 5 10 10 2 18 -6 6 -11 15 -11 20 0 16 18 -3 35 -39 18 -38 43 -35 31 4
-17 51 -71 97 -97 82z"/>
<path d="M4086 9333 c-6 -14 -5 -15 5 -6 7 7 10 15 7 18 -3 3 -9 -2 -12 -12z"/>
<path d="M4963 9324 c0 -6 9 -9 19 -6 27 7 29 17 4 17 -13 0 -23 -5 -23 -11z"/>
<path d="M4130 9306 c0 -2 8 -10 18 -17 15 -13 16 -12 3 4 -13 16 -21 21 -21
13z"/>
<path d="M5056 9296 c10 -8 21 -12 24 -10 5 6 -21 24 -34 24 -6 0 -1 -6 10
-14z"/>
<path d="M5155 9250 c3 -5 8 -10 11 -10 2 0 4 5 4 10 0 6 -5 10 -11 10 -5 0
-7 -4 -4 -10z"/>
<path d="M5730 9256 c0 -2 7 -7 16 -10 8 -3 12 -2 9 4 -6 10 -25 14 -25 6z"/>
<path d="M4176 9231 c-3 -5 1 -14 8 -20 10 -9 16 -9 21 -1 4 6 1 9 -7 8 -7 -2
-12 3 -10 10 2 14 -4 16 -12 3z"/>
<path d="M5730 9230 c8 -5 20 -10 25 -10 6 0 3 5 -5 10 -8 5 -19 10 -25 10 -5
0 -3 -5 5 -10z"/>
<path d="M5810 9196 c0 -8 4 -17 9 -20 5 -4 7 3 4 14 -6 23 -13 26 -13 6z"/>
<path d="M5620 9165 c-14 -8 -20 -14 -15 -14 6 0 21 6 35 14 14 8 21 14 15 14
-5 0 -21 -6 -35 -14z"/>
<path d="M5807 9129 c7 -7 15 -10 18 -7 3 3 -2 9 -12 12 -14 6 -15 5 -6 -5z"/>
<path d="M3843 9087 c0 -7 9 -13 19 -13 10 0 18 1 18 3 0 1 -8 7 -18 12 -13 7
-19 6 -19 -2z"/>
<path d="M3940 9090 c-9 -6 -10 -10 -3 -10 6 0 15 5 18 10 8 12 4 12 -15 0z"/>
<path d="M4114 9092 c3 -5 0 -13 -6 -15 -9 -4 -10 -6 -1 -6 17 -1 25 16 12 25
-7 4 -9 3 -5 -4z"/>
<path d="M5430 9081 c0 -7 -4 -9 -10 -6 -6 4 -7 -1 -3 -11 6 -15 7 -15 15 1 6
9 7 19 4 22 -3 4 -6 1 -6 -6z"/>
<path d="M3874 9048 l-29 -33 35 30 c19 17 37 31 39 33 2 1 0 2 -5 2 -6 0 -23
-15 -40 -32z"/>
<path d="M5461 9034 c0 -11 3 -14 6 -6 3 7 2 16 -1 19 -3 4 -6 -2 -5 -13z"/>
<path d="M5463 8995 c0 -8 4 -12 9 -9 5 3 6 10 3 15 -9 13 -12 11 -12 -6z"/>
<path d="M3907 8889 c7 -7 15 -10 18 -7 3 3 -2 9 -12 12 -14 6 -15 5 -6 -5z"/>
<path d="M3950 8880 c-9 -6 -10 -10 -3 -10 6 0 15 5 18 10 8 12 4 12 -15 0z"/>
<path d="M3688 8743 c7 -3 16 -2 19 1 4 3 -2 6 -13 5 -11 0 -14 -3 -6 -6z"/>
<path d="M3648 8723 c7 -3 16 -2 19 1 4 3 -2 6 -13 5 -11 0 -14 -3 -6 -6z"/>
<path d="M3867 8689 c7 -7 15 -10 18 -7 3 3 -2 9 -12 12 -14 6 -15 5 -6 -5z"/>
<path d="M5871 8684 c0 -11 3 -14 6 -6 3 7 2 16 -1 19 -3 4 -6 -2 -5 -13z"/>
<path d="M3823 8665 c0 -8 4 -12 9 -9 5 3 6 10 3 15 -9 13 -12 11 -12 -6z"/>
<path d="M3580 8560 c0 -5 5 -10 11 -10 5 0 7 5 4 10 -3 6 -8 10 -11 10 -2 0
-4 -4 -4 -10z"/>
<path d="M5894 8539 c-3 -6 -3 -13 0 -16 3 -4 6 -1 6 5 0 6 7 9 15 6 8 -4 15
-4 15 -1 0 11 -30 16 -36 6z"/>
<path d="M5945 8530 c-3 -6 1 -7 9 -4 18 7 21 14 7 14 -6 0 -13 -4 -16 -10z"/>
<path d="M6623 8523 c9 -2 14 -9 11 -15 -4 -7 -2 -8 5 -4 15 10 4 26 -17 25
-15 -1 -15 -2 1 -6z"/>
<path d="M6710 8490 c-8 -5 -10 -10 -5 -10 6 0 17 5 25 10 8 5 11 10 5 10 -5
0 -17 -5 -25 -10z"/>
<path d="M3363 8445 c0 -8 4 -12 9 -9 5 3 6 10 3 15 -9 13 -12 11 -12 -6z"/>
<path d="M6275 8450 c3 -5 13 -10 21 -10 8 0 14 5 14 10 0 6 -9 10 -21 10 -11
0 -17 -4 -14 -10z"/>
<path d="M6340 8445 c-7 -8 -9 -15 -5 -15 4 0 1 -8 -6 -17 -9 -11 -3 -9 19 6
18 12 30 27 27 32 -9 13 -21 11 -35 -6z m25 -5 c-3 -5 -11 -10 -16 -10 -6 0
-7 5 -4 10 3 6 11 10 16 10 6 0 7 -4 4 -10z"/>
<path d="M6816 8451 c-6 -10 24 -25 32 -16 3 3 0 5 -7 5 -7 0 -9 5 -6 10 3 6
2 10 -4 10 -5 0 -12 -4 -15 -9z"/>
<path d="M7015 8450 c3 -5 10 -10 16 -10 5 0 9 5 9 10 0 6 -7 10 -16 10 -8 0
-12 -4 -9 -10z"/>
<path d="M6240 8404 c0 -8 5 -12 10 -9 6 3 10 10 10 16 0 5 -4 9 -10 9 -5 0
-10 -7 -10 -16z"/>
<path d="M6965 8366 c-19 -14 -19 -15 8 -40 17 -16 27 -20 27 -11 0 7 -9 17
-20 20 -11 3 -20 11 -20 16 0 5 9 9 20 9 11 0 20 -5 20 -12 0 -6 2 -9 5 -6 7
7 -5 38 -14 38 -4 0 -16 -6 -26 -14z"/>
<path d="M6266 8354 c-4 -9 -4 -19 -1 -22 2 -3 7 3 11 12 4 9 4 19 1 22 -2 3
-7 -3 -11 -12z"/>
<path d="M3174 8292 c3 -5 1 -12 -6 -14 -8 -3 -9 -6 -1 -11 6 -4 13 0 17 8 3
8 0 17 -6 21 -6 4 -8 3 -4 -4z"/>
<path d="M3007 8253 c-4 -3 -7 -11 -7 -17 0 -6 5 -5 12 2 6 6 9 14 7 17 -3 3
-9 2 -12 -2z"/>
<path d="M3136 8233 c-6 -14 -5 -15 5 -6 7 7 10 15 7 18 -3 3 -9 -2 -12 -12z"/>
<path d="M2965 8221 c-3 -5 -2 -12 3 -15 5 -3 9 1 9 9 0 17 -3 19 -12 6z"/>
<path d="M2891 8204 c0 -11 3 -14 6 -6 3 7 2 16 -1 19 -3 4 -6 -2 -5 -13z"/>
<path d="M2880 8174 c0 -1 6 -7 14 -13 10 -9 15 -8 19 2 3 8 -3 13 -14 13 -11
0 -19 -1 -19 -2z"/>
<path d="M6171 8104 c0 -11 3 -14 6 -6 3 7 2 16 -1 19 -3 4 -6 -2 -5 -13z"/>
<path d="M7017 8107 c-4 -10 -2 -17 4 -17 6 0 8 -8 4 -17 -4 -13 -3 -15 5 -7
7 7 7 19 2 34 -7 19 -10 21 -15 7z"/>
<path d="M5815 8040 c-16 -17 -16 -20 -3 -15 9 4 19 13 22 21 7 19 2 18 -19
-6z"/>
<path d="M6464 7844 c-15 -12 -16 -15 -2 -10 9 3 19 0 21 -7 3 -7 4 -2 4 11
-1 12 -2 22 -2 22 -1 0 -10 -7 -21 -16z"/>
<path d="M6240 7831 c0 -5 7 -11 15 -15 8 -3 15 -1 15 3 0 5 -7 11 -15 15 -8
3 -15 1 -15 -3z"/>
<path d="M6317 7779 c7 -7 15 -10 18 -7 3 3 -2 9 -12 12 -14 6 -15 5 -6 -5z"/>
<path d="M6290 7760 c0 -5 5 -10 10 -10 6 0 10 5 10 10 0 6 -4 10 -10 10 -5 0
-10 -4 -10 -10z"/>
<path d="M6374 7698 l-19 -23 23 19 c21 18 27 26 19 26 -2 0 -12 -10 -23 -22z"/>
<path d="M6270 7630 c-9 -17 -9 -25 0 -34 8 -8 9 -6 4 7 -5 14 -2 18 12 15 11
-2 19 3 19 11 0 24 -23 24 -35 1z m30 0 c0 -5 -2 -10 -4 -10 -3 0 -8 5 -11 10
-3 6 -1 10 4 10 6 0 11 -4 11 -10z"/>
<path d="M2436 7455 c-3 -8 -1 -15 3 -15 5 0 11 7 15 15 3 8 1 15 -3 15 -5 0
-11 -7 -15 -15z"/>
<path d="M2400 7450 c0 -5 5 -10 11 -10 5 0 7 5 4 10 -3 6 -8 10 -11 10 -2 0
-4 -4 -4 -10z"/>
<path d="M2329 7403 c-13 -16 -12 -17 4 -4 9 7 17 15 17 17 0 8 -8 3 -21 -13z"/>
<path d="M6045 7400 c-3 -6 1 -7 9 -4 18 7 21 14 7 14 -6 0 -13 -4 -16 -10z"/>
<path d="M5960 7381 c0 -5 12 -17 28 -26 l27 -18 -24 27 c-26 28 -31 31 -31
17z"/>
<path d="M2349 7363 c-13 -16 -12 -17 4 -4 9 7 17 15 17 17 0 8 -8 3 -21 -13z"/>
<path d="M1990 7252 c0 -4 10 -9 22 -9 18 -2 20 0 8 7 -18 12 -30 13 -30 2z"/>
<path d="M2262 7240 c0 -14 2 -19 5 -12 2 6 2 18 0 25 -3 6 -5 1 -5 -13z"/>
<path d="M1925 7231 c-3 -5 -2 -12 3 -15 5 -3 9 1 9 9 0 17 -3 19 -12 6z"/>
<path d="M1998 7223 c7 -3 16 -2 19 1 4 3 -2 6 -13 5 -11 0 -14 -3 -6 -6z"/>
<path d="M5738 7133 c7 -3 16 -2 19 1 4 3 -2 6 -13 5 -11 0 -14 -3 -6 -6z"/>
<path d="M1968 7103 c7 -3 16 -2 19 1 4 3 -2 6 -13 5 -11 0 -14 -3 -6 -6z"/>
<path d="M2250 7091 c0 -9 30 -24 36 -18 2 1 -6 8 -16 15 -11 7 -20 8 -20 3z"/>
<path d="M2005 7069 c-4 -6 -5 -12 -2 -15 2 -3 7 2 10 11 7 17 1 20 -8 4z"/>
<path d="M2044 7062 c3 -5 1 -12 -5 -14 -7 -2 -6 -8 4 -16 12 -10 17 -10 23
-1 5 8 3 9 -6 4 -10 -6 -12 -4 -7 8 3 9 1 19 -5 23 -6 4 -8 3 -4 -4z"/>
<path d="M2090 6849 c0 -5 5 -7 10 -4 6 3 10 8 10 11 0 2 -4 4 -10 4 -5 0 -10
-5 -10 -11z"/>
<path d="M2112 6766 c7 -8 15 -12 17 -11 5 6 -10 25 -20 25 -5 0 -4 -6 3 -14z"/>
<path d="M2120 6725 c-7 -9 -11 -17 -8 -20 2 -2 12 4 21 15 9 11 13 20 8 20
-5 0 -14 -7 -21 -15z"/>
<path d="M2144 6709 c-4 -7 -3 -10 4 -5 6 3 15 -2 21 -11 5 -10 12 -15 15 -12
4 3 -2 14 -13 23 -14 13 -21 14 -27 5z"/>
<path d="M2170 6650 c-9 -6 -10 -10 -3 -10 6 0 15 5 18 10 8 12 4 12 -15 0z"/>
<path d="M6300 6131 c0 -5 5 -13 10 -16 6 -3 10 -2 10 4 0 5 -4 13 -10 16 -5
3 -10 2 -10 -4z"/>
<path d="M7448 5733 c7 -3 16 -2 19 1 4 3 -2 6 -13 5 -11 0 -14 -3 -6 -6z"/>
<path d="M7293 5723 c9 -2 23 -2 30 0 6 3 -1 5 -18 5 -16 0 -22 -2 -12 -5z"/>
<path d="M3476 5705 c4 -8 8 -15 10 -15 2 0 4 7 4 15 0 8 -4 15 -10 15 -5 0
-7 -7 -4 -15z"/>
<path d="M7175 5709 c17 -4 84 -7 150 -7 154 0 129 6 -45 10 -74 2 -121 1
-105 -3z"/>
<path d="M6960 5700 c0 -7 16 -9 40 -7 58 6 62 17 7 17 -26 0 -47 -5 -47 -10z"/>
<path d="M7520 5700 c0 -6 23 -10 52 -10 62 0 60 5 -4 13 -29 4 -48 3 -48 -3z"/>
<path d="M7903 5653 c9 -2 23 -2 30 0 6 3 -1 5 -18 5 -16 0 -22 -2 -12 -5z"/>
<path d="M3568 5573 c7 -3 16 -2 19 1 4 3 -2 6 -13 5 -11 0 -14 -3 -6 -6z"/>
<path d="M3698 5573 c6 -2 18 -2 25 0 6 3 1 5 -13 5 -14 0 -19 -2 -12 -5z"/>
<path d="M3673 5547 c0 -7 9 -14 20 -14 11 -1 18 -1 16 0 -2 2 -11 8 -20 15
-12 9 -16 9 -16 -1z"/>
<path d="M3520 5523 c0 -8 10 -9 38 -1 50 14 51 16 3 15 -24 -1 -41 -7 -41
-14z"/>
<path d="M3526 5417 c3 -10 9 -15 12 -12 3 3 0 11 -7 18 -10 9 -11 8 -5 -6z"/>
<path d="M3536 5382 c-5 -9 2 -63 10 -71 2 -2 4 4 4 15 0 17 3 16 21 -6 11
-14 17 -18 13 -10 -4 8 -16 25 -27 37 -10 12 -16 26 -12 32 3 6 4 11 1 11 -3
0 -7 -4 -10 -8z"/>
<path d="M3530 5285 c0 -6 6 -17 13 -24 10 -11 9 -13 -5 -8 -12 4 -15 2 -12
-8 5 -11 10 -12 24 -3 10 7 17 15 14 19 -2 4 -1 9 3 12 5 2 2 2 -6 0 -8 -2
-18 2 -23 9 -4 7 -8 8 -8 3z"/>
<path d="M3590 5270 c0 -5 5 -10 11 -10 5 0 7 5 4 10 -3 6 -8 10 -11 10 -2 0
-4 -4 -4 -10z"/>
<path d="M3526 5178 c3 -5 10 -6 15 -3 13 9 11 12 -6 12 -8 0 -12 -4 -9 -9z"/>
<path d="M4845 4950 c-3 -5 -1 -10 4 -10 6 0 11 5 11 10 0 6 -2 10 -4 10 -3 0
-8 -4 -11 -10z"/>
<path d="M2110 4920 c-8 -5 -10 -10 -5 -10 6 0 17 5 25 10 8 5 11 10 5 10 -5
0 -17 -5 -25 -10z"/>
<path d="M1878 4833 c6 -2 18 -2 25 0 6 3 1 5 -13 5 -14 0 -19 -2 -12 -5z"/>
<path d="M1788 4773 c6 -2 9 -10 6 -15 -4 -7 -2 -8 5 -4 13 9 5 26 -12 25 -9
0 -8 -2 1 -6z"/>
<path d="M1550 4569 c0 -5 5 -7 10 -4 6 3 10 8 10 11 0 2 -4 4 -10 4 -5 0 -10
-5 -10 -11z"/>
<path d="M1445 4530 c-3 -6 1 -7 9 -4 18 7 21 14 7 14 -6 0 -13 -4 -16 -10z"/>
<path d="M1445 4480 c-3 -6 1 -7 9 -4 18 7 21 14 7 14 -6 0 -13 -4 -16 -10z"/>
<path d="M1359 4383 c-13 -16 -12 -17 4 -4 9 7 17 15 17 17 0 8 -8 3 -21 -13z"/>
<path d="M1215 4290 c-2 -3 5 -6 15 -7 11 -1 22 2 24 5 3 4 -4 8 -15 8 -11 0
-22 -3 -24 -6z"/>
<path d="M1165 4210 c-3 -5 -1 -10 4 -10 6 0 11 5 11 10 0 6 -2 10 -4 10 -3 0
-8 -4 -11 -10z"/>
<path d="M9385 4191 c-7 -12 12 -24 25 -16 11 7 4 25 -10 25 -5 0 -11 -4 -15
-9z"/>
<path d="M1165 4170 c-10 -11 -14 -20 -9 -20 5 0 15 9 22 20 7 11 11 20 9 20
-2 0 -12 -9 -22 -20z"/>
<path d="M5133 4060 c0 -47 2 -66 4 -42 2 23 2 61 0 85 -2 23 -4 4 -4 -43z"/>
<path d="M9533 4037 c-3 -7 -3 -9 2 -5 4 4 13 4 19 -1 14 -10 46 -22 46 -16 0
2 -13 10 -30 18 -22 12 -32 12 -37 4z"/>
<path d="M4450 3903 c-13 -15 -12 -16 2 -10 9 3 19 1 22 -6 2 -7 5 -2 5 11 1
26 -8 28 -29 5z"/>
<path d="M8711 3641 c-9 -6 1 -14 35 -26 27 -10 53 -22 59 -27 5 -4 17 -8 27
-8 10 0 18 -4 18 -10 0 -5 7 -10 15 -10 8 0 15 -4 15 -10 0 -5 9 -10 21 -10
13 0 18 -4 13 -12 -5 -8 2 -9 24 -5 17 4 34 2 37 -3 7 -12 45 -13 45 -2 0 4
-13 16 -30 25 -16 10 -30 22 -30 28 0 5 -7 9 -15 9 -8 0 -39 11 -68 25 -44 20
-124 44 -147 45 -3 0 -11 -4 -19 -9z"/>
<path d="M752 3450 c0 -14 2 -19 5 -12 2 6 2 18 0 25 -3 6 -5 1 -5 -13z"/>
<path d="M9453 3343 c9 -2 23 -2 30 0 6 3 -1 5 -18 5 -16 0 -22 -2 -12 -5z"/>
<path d="M4960 3250 c0 -5 9 -8 20 -7 21 1 18 10 -5 13 -8 1 -15 -2 -15 -6z"/>
<path d="M4966 3213 c-10 -25 -7 -28 10 -7 13 16 15 16 10 2 -7 -23 1 -23 13
0 7 14 6 18 -9 19 -10 1 -21 -5 -24 -14z"/>
<path d="M4976 3167 c3 -10 9 -15 12 -12 3 3 0 11 -7 18 -10 9 -11 8 -5 -6z"/>
<path d="M5070 3035 c0 -7 30 -13 34 -7 3 4 -4 9 -15 9 -10 1 -19 0 -19 -2z"/>
<path d="M5120 3016 c0 -2 8 -10 18 -17 15 -13 16 -12 3 4 -13 16 -21 21 -21
13z"/>
<path d="M7345 2870 c-3 -5 -1 -10 4 -10 6 0 11 5 11 10 0 6 -2 10 -4 10 -3 0
-8 -4 -11 -10z"/>
<path d="M5476 2537 c3 -10 9 -15 12 -12 3 3 0 11 -7 18 -10 9 -11 8 -5 -6z"/>
<path d="M6176 2237 c3 -10 9 -15 12 -12 3 3 0 11 -7 18 -10 9 -11 8 -5 -6z"/>
<path d="M6179 2138 c-5 -19 -8 -50 -4 -46 7 7 15 48 9 48 -2 0 -4 -1 -5 -2z"/>
<path d="M6201 2124 c0 -11 3 -14 6 -6 3 7 2 16 -1 19 -3 4 -6 -2 -5 -13z"/>
<path d="M6223 2123 c1 -25 5 -27 27 -13 13 8 13 10 -2 10 -9 0 -18 6 -21 13
-3 6 -4 2 -4 -10z"/>
<path d="M6182 2067 c-8 -10 -6 -13 7 -13 11 0 17 6 14 13 -3 7 -6 13 -8 13
-1 0 -7 -6 -13 -13z"/>
<path d="M6243 1900 c2 -11 9 -26 15 -32 10 -10 10 -6 1 20 -12 36 -20 42 -16
12z"/>
<path d="M6249 1838 c-6 -15 -4 -56 2 -52 5 3 8 16 7 29 -2 22 -6 31 -9 23z"/>
<path d="M6261 1707 c-13 -21 -12 -21 5 -5 10 10 16 20 13 22 -3 3 -11 -5 -18
-17z"/>
<path d="M6407 1234 c7 -3 9 -13 6 -22 -4 -14 -3 -14 5 -2 12 16 7 30 -11 29
-9 0 -9 -2 0 -5z"/>
<path d="M6480 1034 c0 -12 4 -14 13 -7 6 6 19 13 27 16 9 3 3 6 -12 6 -20 1
-28 -4 -28 -15z"/>
</g>
</svg>
